<svg width="354" height="64" viewBox="0 0 354 64" fill="none" xmlns="http://www.w3.org/2000/svg">
<path d="M0 62.9494V0.787962H41.3296V10.6813H5.13357L11.3112 4.29002V32.8317L5.13357 27.6662H39.7634V37.472H5.13357L11.3112 32.3064V62.9494H0Z" fill="white"/>
<path d="M44.7216 62.9494V16.197H55.8588V62.9494H44.7216ZM44.5476 9.98085V0H56.1198V9.98085H44.5476Z" fill="white"/>
<path d="M63.5476 62.9494V16.197H73.6407L74.0758 29.3297L72.7706 28.8044C73.2347 25.5358 74.1918 22.9093 75.6419 20.9248C77.0921 18.9403 78.8613 17.4811 80.9495 16.5472C83.0377 15.6133 85.329 15.1464 87.8233 15.1464C91.2457 15.1464 94.117 15.9052 96.4372 17.4227C98.8155 18.9403 100.614 21.0415 101.832 23.7264C103.05 26.3529 103.659 29.4172 103.659 32.9193V62.9494H92.5218V36.5089C92.5218 33.8824 92.2608 31.6644 91.7387 29.855C91.2166 28.0456 90.3465 26.674 89.1284 25.7401C87.9683 24.7478 86.4021 24.2517 84.4299 24.2517C81.4716 24.2517 79.0933 25.3023 77.2951 27.4036C75.5549 29.5048 74.6848 32.5399 74.6848 36.5089V62.9494H63.5476Z" fill="white"/>
<path d="M129.665 64C125.083 64 121.051 63.0078 117.571 61.0233C114.149 58.9804 111.48 56.1204 109.566 52.4432C107.71 48.7661 106.782 44.4761 106.782 39.5732C106.782 34.6119 107.71 30.3219 109.566 26.7031C111.48 23.026 114.149 20.1952 117.571 18.2107C121.051 16.1678 125.083 15.1464 129.665 15.1464C134.248 15.1464 138.25 16.1678 141.673 18.2107C145.095 20.1952 147.734 23.026 149.591 26.7031C151.505 30.3219 152.462 34.6119 152.462 39.5732C152.462 44.4761 151.505 48.7661 149.591 52.4432C147.734 56.1204 145.095 58.9804 141.673 61.0233C138.25 63.0078 134.248 64 129.665 64ZM129.665 54.8947C133.262 54.8947 136.017 53.5522 137.931 50.8673C139.904 48.1824 140.89 44.4177 140.89 39.5732C140.89 34.7871 139.904 31.0515 137.931 28.3666C136.017 25.6233 133.262 24.2517 129.665 24.2517C126.069 24.2517 123.285 25.6233 121.312 28.3666C119.34 31.0515 118.354 34.7871 118.354 39.5732C118.354 44.4177 119.34 48.1824 121.312 50.8673C123.285 53.5522 126.069 54.8947 129.665 54.8947Z" fill="white"/>
<path d="M166.924 62.9494L149.958 16.197H161.704L173.537 51.6553L185.371 16.197H197.117L180.15 62.9494H166.924Z" fill="white"/>
<path d="M217.448 64C212.807 64 208.776 63.0078 205.354 61.0233C201.931 58.9804 199.292 56.1204 197.436 52.4432C195.579 48.7661 194.651 44.4761 194.651 39.5732C194.651 34.6703 195.579 30.4095 197.436 26.7907C199.292 23.1135 201.902 20.2535 205.266 18.2107C208.689 16.1678 212.662 15.1464 217.187 15.1464C221.595 15.1464 225.453 16.1386 228.759 18.1231C232.123 20.1076 234.705 22.9676 236.503 26.7031C238.301 30.4387 239.2 34.933 239.2 40.186V42.725H206.224C206.456 46.8108 207.558 49.9042 209.53 52.0055C211.56 54.0483 214.228 55.0698 217.535 55.0698C220.029 55.0698 222.088 54.5153 223.713 53.4063C225.395 52.2389 226.555 50.6338 227.193 48.591L238.591 49.2914C237.315 53.8441 234.792 57.4337 231.021 60.0602C227.309 62.6867 222.784 64 217.448 64ZM206.224 35.1956H227.715C227.483 31.4017 226.41 28.6001 224.496 26.7907C222.581 24.9229 220.145 23.9891 217.187 23.9891C214.228 23.9891 211.763 24.9521 209.791 26.8783C207.877 28.8044 206.688 31.5768 206.224 35.1956Z" fill="white"/>
<path d="M242.685 62.9494V16.197H253.127L253.562 29.1546L252.604 28.9795C253.301 24.4852 254.606 21.2458 256.52 19.2613C258.492 17.2184 261.16 16.197 264.525 16.197H268.788V25.8276H264.438C262.06 25.8276 260.087 26.1778 258.521 26.8783C256.955 27.5787 255.766 28.6876 254.954 30.2052C254.2 31.6644 253.823 33.5905 253.823 35.9836V62.9494H242.685Z" fill="white"/>
<path d="M288.465 64C283.882 64 280.025 63.3288 276.892 61.9863C273.818 60.6439 271.44 58.7761 269.758 56.383C268.075 53.99 267.118 51.2759 266.886 48.2408L278.285 47.7155C278.691 50.1669 279.706 52.0638 281.33 53.4063C282.954 54.7487 285.361 55.42 288.552 55.42C291.162 55.42 293.192 55.0114 294.642 54.1943C296.15 53.3187 296.905 51.9763 296.905 50.1669C296.905 49.1163 296.644 48.2408 296.121 47.5404C295.599 46.8399 294.613 46.2271 293.163 45.7018C291.713 45.1765 289.567 44.6512 286.724 44.1259C281.968 43.3087 278.227 42.3165 275.5 41.1491C272.774 39.9234 270.831 38.4058 269.671 36.5964C268.568 34.7871 268.017 32.5399 268.017 29.855C268.017 25.4774 269.671 21.9462 272.977 19.2613C276.341 16.518 281.243 15.1464 287.682 15.1464C291.858 15.1464 295.367 15.8468 298.21 17.2476C301.052 18.5901 303.256 20.4578 304.822 22.8509C306.447 25.1856 307.462 27.8705 307.868 30.9056L296.644 31.4309C296.354 29.855 295.831 28.4834 295.077 27.316C294.323 26.1487 293.308 25.2731 292.032 24.6895C290.756 24.0474 289.248 23.7264 287.508 23.7264C284.897 23.7264 282.925 24.2517 281.591 25.3023C280.257 26.3529 279.59 27.7538 279.59 29.5048C279.59 30.7305 279.88 31.7519 280.46 32.5691C281.098 33.3862 282.113 34.0575 283.505 34.5828C284.897 35.0497 286.753 35.4875 289.074 35.896C293.946 36.6548 297.775 37.6471 300.559 38.8728C303.401 40.0401 305.403 41.5577 306.563 43.4254C307.781 45.2348 308.39 47.4236 308.39 49.9918C308.39 52.9685 307.549 55.5075 305.867 57.6088C304.242 59.71 301.922 61.3151 298.906 62.4241C295.947 63.4747 292.467 64 288.465 64Z" fill="white"/>
<path d="M331.961 64C327.32 64 323.289 63.0078 319.866 61.0233C316.444 58.9804 313.805 56.1204 311.948 52.4432C310.092 48.7661 309.164 44.4761 309.164 39.5732C309.164 34.6703 310.092 30.4095 311.948 26.7907C313.805 23.1135 316.415 20.2535 319.779 18.2107C323.202 16.1678 327.175 15.1464 331.7 15.1464C336.108 15.1464 339.965 16.1386 343.272 18.1231C346.636 20.1076 349.218 22.9676 351.016 26.7031C352.814 30.4387 353.713 34.933 353.713 40.186V42.725H320.736C320.968 46.8108 322.071 49.9042 324.043 52.0055C326.073 54.0483 328.741 55.0698 332.048 55.0698C334.542 55.0698 336.601 54.5153 338.225 53.4063C339.907 52.2389 341.068 50.6338 341.706 48.591L353.104 49.2914C351.828 53.8441 349.305 57.4337 345.534 60.0602C341.822 62.6867 337.297 64 331.961 64ZM320.736 35.1956H342.228C341.996 31.4017 340.923 28.6001 339.008 26.7907C337.094 24.9229 334.658 23.9891 331.7 23.9891C328.741 23.9891 326.276 24.9521 324.304 26.8783C322.39 28.8044 321.2 31.5768 320.736 35.1956Z" fill="white"/>
</svg>
