<svg width="293" height="117" viewBox="0 0 293 117" fill="none" xmlns="http://www.w3.org/2000/svg">
<path d="M0 51.78V0.648151H34.2079V8.78604H4.24899L9.36217 3.52882V27.0063L4.24899 22.7573H32.9116V30.8232H4.24899L9.36217 26.5742V51.78H0Z" fill="black"/>
<path d="M37.0155 51.78V13.3231H46.2336V51.78H37.0155ZM36.8714 8.20991V0H46.4497V8.20991H36.8714Z" fill="black"/>
<path d="M52.5975 51.78V13.3231H60.9515L61.3116 24.1256L60.2313 23.6935C60.6154 21.0049 61.4076 18.8444 62.6079 17.212C63.8081 15.5796 65.2725 14.3793 67.0009 13.6112C68.7293 12.843 70.6257 12.4589 72.6902 12.4589C75.5229 12.4589 77.8994 13.083 79.8199 14.3313C81.7883 15.5796 83.2767 17.308 84.2849 19.5165C85.2931 21.677 85.7972 24.1976 85.7972 27.0783V51.78H76.5791V30.031C76.5791 27.8705 76.3631 26.0461 75.931 24.5577C75.4989 23.0694 74.7787 21.9411 73.7704 21.1729C72.8102 20.3567 71.5139 19.9486 69.8815 19.9486C67.433 19.9486 65.4645 20.8128 63.9762 22.5412C62.5358 24.2696 61.8157 26.7662 61.8157 30.031V51.78H52.5975Z" fill="black"/>
<path d="M107.322 52.6442C103.529 52.6442 100.193 51.828 97.312 50.1957C94.4794 48.5153 92.2709 46.1627 90.6865 43.138C89.1502 40.1133 88.382 36.5845 88.382 32.5516C88.382 28.4706 89.1502 24.9418 90.6865 21.9651C92.2709 18.9404 94.4794 16.6119 97.312 14.9795C100.193 13.2991 103.529 12.4589 107.322 12.4589C111.115 12.4589 114.428 13.2991 117.261 14.9795C120.093 16.6119 122.278 18.9404 123.814 21.9651C125.399 24.9418 126.191 28.4706 126.191 32.5516C126.191 36.5845 125.399 40.1133 123.814 43.138C122.278 46.1627 120.093 48.5153 117.261 50.1957C114.428 51.828 111.115 52.6442 107.322 52.6442ZM107.322 45.1545C110.299 45.1545 112.58 44.0502 114.164 41.8417C115.796 39.6332 116.613 36.5365 116.613 32.5516C116.613 28.6146 115.796 25.5419 114.164 23.3334C112.58 21.0769 110.299 19.9486 107.322 19.9486C104.346 19.9486 102.041 21.0769 100.409 23.3334C98.7764 25.5419 97.9602 28.6146 97.9602 32.5516C97.9602 36.5365 98.7764 39.6332 100.409 41.8417C102.041 44.0502 104.346 45.1545 107.322 45.1545Z" fill="black"/>
<path d="M138.161 51.78L124.118 13.3231H133.84L143.635 42.4899L153.429 13.3231H163.151L149.108 51.78H138.161Z" fill="black"/>
<path d="M179.979 52.6442C176.138 52.6442 172.801 51.828 169.968 50.1957C167.136 48.5153 164.951 46.1627 163.415 43.138C161.879 40.1133 161.11 36.5845 161.11 32.5516C161.11 28.5186 161.879 25.0138 163.415 22.0371C164.951 19.0124 167.112 16.6599 169.896 14.9795C172.729 13.2991 176.018 12.4589 179.763 12.4589C183.412 12.4589 186.604 13.2751 189.341 14.9075C192.126 16.5398 194.262 18.8924 195.75 21.9651C197.239 25.0378 197.983 28.7347 197.983 33.0557V35.1442H170.689C170.881 38.5049 171.793 41.0495 173.425 42.7779C175.106 44.4583 177.314 45.2985 180.051 45.2985C182.115 45.2985 183.82 44.8424 185.164 43.9302C186.556 42.97 187.517 41.6497 188.045 39.9693L197.479 40.5454C196.423 44.2903 194.334 47.243 191.213 49.4035C188.141 51.564 184.396 52.6442 179.979 52.6442ZM170.689 28.9507H188.477C188.285 25.83 187.397 23.5255 185.812 22.0371C184.228 20.5008 182.211 19.7326 179.763 19.7326C177.314 19.7326 175.274 20.5248 173.641 22.1091C172.057 23.6935 171.073 25.974 170.689 28.9507Z" fill="black"/>
<path d="M200.868 51.78V13.3231H209.51L209.87 23.9816L209.078 23.8375C209.654 20.1407 210.734 17.4761 212.318 15.8437C213.951 14.1633 216.159 13.3231 218.944 13.3231H222.473V21.2449H218.872C216.903 21.2449 215.271 21.533 213.975 22.1091C212.678 22.6853 211.694 23.5975 211.022 24.8458C210.398 26.0461 210.086 27.6304 210.086 29.5989V51.78H200.868Z" fill="black"/>
<path d="M238.759 52.6442C234.966 52.6442 231.773 52.0921 229.18 50.9879C226.636 49.8836 224.667 48.3472 223.275 46.3788C221.883 44.4103 221.09 42.1778 220.898 39.6812L230.333 39.2491C230.669 41.2656 231.509 42.826 232.853 43.9302C234.197 45.0345 236.19 45.5866 238.831 45.5866C240.991 45.5866 242.671 45.2505 243.872 44.5784C245.12 43.8582 245.744 42.7539 245.744 41.2656C245.744 40.4014 245.528 39.6812 245.096 39.1051C244.664 38.529 243.848 38.0248 242.647 37.5927C241.447 37.1606 239.671 36.7285 237.318 36.2964C233.381 35.6243 230.285 34.8081 228.028 33.8479C225.772 32.8396 224.163 31.5913 223.203 30.103C222.291 28.6146 221.835 26.7662 221.835 24.5577C221.835 20.9569 223.203 18.0522 225.94 15.8437C228.724 13.5872 232.781 12.4589 238.11 12.4589C241.567 12.4589 244.472 13.035 246.824 14.1873C249.177 15.2916 251.001 16.8279 252.298 18.7964C253.642 20.7168 254.482 22.9253 254.818 25.4219L245.528 25.854C245.288 24.5577 244.856 23.4294 244.232 22.4692C243.608 21.509 242.767 20.7888 241.711 20.3087C240.655 19.7806 239.407 19.5165 237.966 19.5165C235.806 19.5165 234.173 19.9486 233.069 20.8128C231.965 21.677 231.413 22.8293 231.413 24.2696C231.413 25.2779 231.653 26.1181 232.133 26.7902C232.661 27.4624 233.501 28.0145 234.654 28.4466C235.806 28.8307 237.342 29.1908 239.263 29.5269C243.296 30.151 246.464 30.9672 248.769 31.9754C251.121 32.9357 252.778 34.1839 253.738 35.7203C254.746 37.2086 255.25 39.0091 255.25 41.1216C255.25 43.5701 254.554 45.6586 253.162 47.387C251.818 49.1154 249.897 50.4357 247.401 51.3479C244.952 52.2121 242.071 52.6442 238.759 52.6442Z" fill="black"/>
<path d="M274.76 52.6442C270.919 52.6442 267.582 51.828 264.749 50.1957C261.917 48.5153 259.732 46.1627 258.196 43.138C256.659 40.1133 255.891 36.5845 255.891 32.5516C255.891 28.5186 256.659 25.0138 258.196 22.0371C259.732 19.0124 261.893 16.6599 264.677 14.9795C267.51 13.2991 270.799 12.4589 274.544 12.4589C278.192 12.4589 281.385 13.2751 284.122 14.9075C286.906 16.5398 289.043 18.8924 290.531 21.9651C292.02 25.0378 292.764 28.7347 292.764 33.0557V35.1442H265.469C265.661 38.5049 266.574 41.0495 268.206 42.7779C269.886 44.4583 272.095 45.2985 274.832 45.2985C276.896 45.2985 278.6 44.8424 279.945 43.9302C281.337 42.97 282.297 41.6497 282.825 39.9693L292.26 40.5454C291.203 44.2903 289.115 47.243 285.994 49.4035C282.921 51.564 279.177 52.6442 274.76 52.6442ZM265.469 28.9507H283.258C283.065 25.83 282.177 23.5255 280.593 22.0371C279.009 20.5008 276.992 19.7326 274.544 19.7326C272.095 19.7326 270.054 20.5248 268.422 22.1091C266.838 23.6935 265.854 25.974 265.469 28.9507Z" fill="black"/>
<path d="M0 115.78V64.6481H10.9465L32.9837 103.105V64.6481H42.3458V115.78H31.1112L9.36217 78.4033V115.78H0Z" fill="black"/>
<path d="M64.7633 116.644C60.9224 116.644 57.5856 115.828 54.753 114.196C51.9203 112.515 49.7358 110.163 48.1994 107.138C46.6631 104.113 45.8949 100.585 45.8949 96.5516C45.8949 92.5186 46.6631 89.0138 48.1994 86.0371C49.7358 83.0124 51.8963 80.6599 54.681 78.9795C57.5136 77.2991 60.8024 76.4589 64.5472 76.4589C68.1961 76.4589 71.3888 77.2751 74.1255 78.9075C76.9101 80.5398 79.0466 82.8924 80.535 85.9651C82.0233 89.0378 82.7675 92.7347 82.7675 97.0557V99.1442H55.4731C55.6652 102.505 56.5774 105.05 58.2098 106.778C59.8902 108.458 62.0987 109.299 64.8353 109.299C66.8998 109.299 68.6042 108.842 69.9485 107.93C71.3408 106.97 72.301 105.65 72.8292 103.969L82.2634 104.545C81.2071 108.29 79.1186 111.243 75.9979 113.403C72.9252 115.564 69.1803 116.644 64.7633 116.644ZM55.4731 92.9507H73.2613C73.0692 89.83 72.181 87.5255 70.5967 86.0371C69.0123 84.5008 66.9958 83.7326 64.5472 83.7326C62.0987 83.7326 60.0582 84.5248 58.4258 86.1091C56.8415 87.6935 55.8572 89.974 55.4731 92.9507Z" fill="black"/>
<path d="M99.7274 115.78C95.8865 115.78 93.0539 114.892 91.2294 113.115C89.453 111.339 88.5648 108.554 88.5648 104.761V68.321H97.783V103.897C97.783 105.674 98.1671 106.922 98.9352 107.642C99.7034 108.314 100.904 108.65 102.536 108.65H107.937V115.78H99.7274ZM82.5154 84.4528V77.3231H107.937V84.4528H82.5154Z" fill="black"/>
<path d="M117.95 115.78L106.356 77.3231H115.79L123.28 105.338L130.985 77.3231H139.051L146.829 105.338L154.319 77.3231H163.753L152.158 115.78H142.652L135.018 89.998L127.457 115.78H117.95Z" fill="black"/>
<path d="M180.644 116.644C176.852 116.644 173.515 115.828 170.634 114.196C167.801 112.515 165.593 110.163 164.009 107.138C162.472 104.113 161.704 100.585 161.704 96.5516C161.704 92.4706 162.472 88.9418 164.009 85.9651C165.593 82.9404 167.801 80.6119 170.634 78.9795C173.515 77.2991 176.852 76.4589 180.644 76.4589C184.437 76.4589 187.75 77.2991 190.583 78.9795C193.415 80.6119 195.6 82.9404 197.136 85.9651C198.721 88.9418 199.513 92.4706 199.513 96.5516C199.513 100.585 198.721 104.113 197.136 107.138C195.6 110.163 193.415 112.515 190.583 114.196C187.75 115.828 184.437 116.644 180.644 116.644ZM180.644 109.154C183.621 109.154 185.902 108.05 187.486 105.842C189.118 103.633 189.935 100.536 189.935 96.5516C189.935 92.6147 189.118 89.5419 187.486 87.3334C185.902 85.0769 183.621 83.9486 180.644 83.9486C177.668 83.9486 175.363 85.0769 173.731 87.3334C172.098 89.5419 171.282 92.6147 171.282 96.5516C171.282 100.536 172.098 103.633 173.731 105.842C175.363 108.05 177.668 109.154 180.644 109.154Z" fill="black"/>
<path d="M202.305 115.78V77.3231H210.947L211.307 87.9816L210.515 87.8375C211.091 84.1407 212.171 81.4761 213.756 79.8437C215.388 78.1633 217.597 77.3231 220.381 77.3231H223.91V85.2449H220.309C218.341 85.2449 216.708 85.533 215.412 86.1091C214.116 86.6853 213.132 87.5975 212.459 88.8458C211.835 90.0461 211.523 91.6304 211.523 93.5989V115.78H202.305Z" fill="black"/>
<path d="M225.553 115.78V64.6481H234.771V94.6791L250.543 77.3231H261.921L246.87 93.3108L262.426 115.78H252.055L240.821 98.7841L234.771 105.194V115.78H225.553Z" fill="black"/>
</svg>
