<svg width="1400" height="760" viewBox="0 0 1400 760" xmlns="http://www.w3.org/2000/svg">
  <rect width="1400" height="760" rx="24" fill="#F2F2F2"/>
  <g fill="#111111">
    <circle cx="420" cy="380" r="4"/>
    <circle cx="980" cy="340" r="7"/>
    <circle cx="560" cy="220" r="7"/>
    <circle cx="560" cy="540" r="7"/>
    <circle cx="900" cy="260" r="7"/>
    <circle cx="910" cy="530" r="7"/>
  </g>
  <g fill="#111111">
    <circle cx="420" cy="200" r="2"/>
    <circle cx="390" cy="224" r="2"/>
    <circle cx="455" cy="234" r="2"/>
    <circle cx="360" cy="250" r="2"/>
    <circle cx="500" cy="260" r="2"/>
    <circle cx="338" cy="292" r="2"/>
    <circle cx="524" cy="300" r="2"/>
    <circle cx="327" cy="338" r="2"/>
    <circle cx="530" cy="350" r="2"/>
    <circle cx="330" cy="380" r="2"/>
    <circle cx="530" cy="390" r="2"/>
    <circle cx="336" cy="430" r="2"/>
    <circle cx="525" cy="440" r="2"/>
    <circle cx="356" cy="490" r="2"/>
    <circle cx="500" cy="500" r="2"/>
    <circle cx="384" cy="530" r="2"/>
    <circle cx="454" cy="538" r="2"/>
  </g>
  <text x="860" y="370" font-size="46" font-family="Geist, Arial, sans-serif" fill="#111111">Simplicity</text>
  <text x="860" y="425" font-size="46" font-family="Geist, Arial, sans-serif" fill="#111111">Space</text>
  <text x="860" y="480" font-size="46" font-family="Geist, Arial, sans-serif" fill="#111111">Imperfection</text>
  <text x="860" y="535" font-size="46" font-family="Geist, Arial, sans-serif" fill="#111111">Vivid</text>
  <text x="700" y="70" text-anchor="middle" font-size="18" letter-spacing="2" font-family="Geist, Arial, sans-serif" fill="#333333">Design Principles</text>
</svg>
