<svg width="128" height="128" viewBox="0 0 128 128" fill="none" xmlns="http://www.w3.org/2000/svg">
<rect width="128" height="128" fill="#8AEDE2"/>
<path d="M69.9558 79.0347L60.9309 112.5L47.44 108.883L53.3353 87.0347L53.5007 86.5198L53.7124 86.0248L53.9704 85.5561L54.2682 85.1139L54.6056 84.698L54.9828 84.3218L55.3996 83.972L55.6907 83.7673L56.0017 83.5759L85.9543 66.3087L86.4373 66.0578L86.9402 65.8598L87.4563 65.708L87.9789 65.6024L88.5149 65.5496H89.0508L89.5867 65.6024L89.944 65.6618L90.3013 65.741L112.189 71.5496L108.583 84.9159L75.196 76.0248L74.7858 75.939L74.3755 75.8928H73.9653L73.5683 75.9258L73.178 75.9918L72.7942 76.0974L72.4237 76.2294L72.0664 76.401L71.729 76.599L71.4114 76.8301L71.1136 77.0941L70.8423 77.3779L70.5975 77.6948L70.3792 78.0314L70.1939 78.3944C70.1939 78.3944 70.0881 78.6386 69.9558 79.0347Z" fill="black"/>
<path d="M48.9483 61.1005L24.408 36.5725L34.3326 26.731L50.351 42.7441L50.7149 43.1468L51.0391 43.5758L51.317 44.0313L51.5486 44.5131L51.7405 45.0082L51.8794 45.523L51.9721 46.0511L52.0118 46.4141V81.8265L51.9324 82.3612L51.8067 82.8826L51.6346 83.3909L51.4096 83.8793L51.145 84.3414L50.834 84.7836L50.6025 85.0608L50.3577 85.3248L34.3723 101.338L24.5337 91.5162L48.9417 67.0939L49.2262 66.7837L49.471 66.4536L49.6828 66.1038L49.8548 65.7474L49.9938 65.3711L50.0996 64.9883L50.1657 64.5988V63.82L50.1261 63.4239L50.0467 63.0411L49.9342 62.6583L49.782 62.2886L49.5967 61.9322L49.3784 61.5956C49.3784 61.5956 49.2262 61.4173 48.9483 61.1005Z" fill="black"/>
<path d="M75.0239 51.9124L108.583 42.9751L112.189 56.4404L90.2947 62.282L89.7654 62.3942L89.2295 62.4602H88.6935L88.1576 62.4206L87.6349 62.3348L87.1122 62.2028L86.6093 62.018L86.2785 61.8662L85.9609 61.6945L55.9951 44.4537L55.5385 44.1566L55.1085 43.8266L54.7181 43.457L54.3674 43.0543L54.0564 42.6187L53.7852 42.1566L53.5536 41.6682L53.4279 41.325L53.322 40.9817L47.4202 19.1996L60.8185 15.6089L69.7837 48.8959L69.9094 49.2985L70.0749 49.6748L70.2733 50.0312L70.4983 50.3612L70.7497 50.6649L71.0342 50.9487L71.3386 51.1995L71.6628 51.4239L72.0068 51.6154L72.3642 51.7738L72.7347 51.8992L73.125 51.9916L73.522 52.0444H74.3292C74.3292 52.0444 74.6071 52.0048 75.0239 51.9124Z" fill="black"/>
</svg>
