<svg width="1894" height="445" viewBox="0 0 1894 445" fill="none" xmlns="http://www.w3.org/2000/svg">
<path d="M614.288 146.817L614.258 109.075L501.25 109.135L454.998 109.166L455.15 337.046L501.372 337.016L501.341 249.101L599.033 249.041V211.298L501.311 211.359L501.281 146.878L614.288 146.817Z" fill="#111111"/>
<path d="M677.199 158.853H633.889V336.925H677.199V158.853Z" fill="#111111"/>
<path d="M677.772 94.7048H633.157V135.722H677.772V94.7048Z" fill="#111111"/>
<path d="M869.003 185.924C864.279 176.52 856.897 168.71 847.772 163.46C837.554 157.9 826.039 155.159 814.41 155.518C805.914 155.451 797.474 156.888 789.479 159.762C781.854 162.506 774.794 166.615 768.643 171.888C762.304 177.385 756.968 183.939 752.871 191.26L749.596 158.701H711.472V336.773H754.782V241.401C754.693 234.584 755.791 227.804 758.027 221.363C759.979 215.736 763.078 210.575 767.126 206.205C771.032 202.078 775.751 198.806 780.987 196.595C786.49 194.261 792.418 193.095 798.396 193.17C805.041 192.918 811.629 194.49 817.443 197.717C822.548 200.725 826.636 205.191 829.18 210.54C832.021 216.596 833.422 223.225 833.275 229.912V336.713H876.585V220.15C876.85 208.298 874.249 196.557 869.003 185.924Z" fill="#111111"/>
<path d="M1061.81 190.988C1056.89 183.485 1050.65 176.933 1043.4 171.646C1035.82 166.148 1027.33 162.042 1018.32 159.52C1008.19 156.726 997.73 155.359 987.229 155.458C976.775 155.357 966.36 156.735 956.293 159.551C947.335 162.099 938.896 166.204 931.362 171.677C924.118 176.975 917.892 183.537 912.982 191.048C907.831 198.983 903.934 207.665 901.427 216.786C898.648 226.855 897.291 237.263 897.393 247.708C897.328 258.242 898.695 268.736 901.457 278.902C903.94 288.028 907.85 296.704 913.043 304.61C918.001 312.049 924.233 318.555 931.453 323.83C938.986 329.305 947.425 333.41 956.384 335.956C966.451 338.771 976.867 340.139 987.32 340.018C997.834 340.121 1008.31 338.743 1018.44 335.926C1027.45 333.409 1035.93 329.302 1043.49 323.799C1050.72 318.541 1056.96 312.032 1061.9 304.579C1067.06 296.683 1070.9 288.001 1073.27 278.872C1075.95 268.62 1077.25 258.059 1077.16 247.465C1077.24 237.03 1075.92 226.63 1073.24 216.544C1070.8 207.477 1066.94 198.853 1061.81 190.988ZM1030.93 267.686C1029.98 273.246 1028.17 278.626 1025.57 283.631C1023.25 288.052 1020.17 292.024 1016.47 295.364C1012.77 298.589 1008.46 301.023 1003.79 302.518C998.469 304.223 992.907 305.052 987.32 304.974C981.804 305.068 976.311 304.249 971.063 302.548C966.444 301.02 962.176 298.588 958.507 295.394C954.792 292.074 951.71 288.11 949.408 283.692C946.796 278.673 944.927 273.302 943.858 267.746C942.611 261.141 942.012 254.43 942.069 247.708C942.015 241.098 942.604 234.499 943.827 228.003C944.887 222.445 946.757 217.072 949.378 212.057C951.698 207.642 954.778 203.671 958.477 200.325C962.111 197.099 966.377 194.662 971.003 193.17C976.313 191.469 981.865 190.639 987.441 190.715C993.025 190.643 998.585 191.461 1003.91 193.14C1008.58 194.665 1012.89 197.096 1016.62 200.294C1020.32 203.634 1023.41 207.606 1025.72 212.027C1028.32 217.032 1030.13 222.412 1031.09 227.972C1032.22 234.468 1032.77 241.053 1032.72 247.647C1032.71 254.315 1032.11 260.969 1030.93 267.534V267.686Z" fill="#111111"/>
<path d="M1205.42 158.519L1161.89 278.811L1118.46 158.58L1072.54 158.61L1143.64 336.622H1177.51L1247.42 158.519H1205.42Z" fill="#111111"/>
<path d="M1396.46 178.619C1388.61 170.931 1379.23 164.999 1368.92 161.218C1357.55 157.039 1345.51 154.984 1333.4 155.155C1322.83 155.049 1312.3 156.531 1302.16 159.55C1293.04 162.277 1284.45 166.52 1276.74 172.101C1269.44 177.452 1263.16 184.076 1258.21 191.654C1253.1 199.492 1249.21 208.057 1246.66 217.059C1243.88 226.921 1242.51 237.128 1242.59 247.374C1242.51 257.822 1243.88 268.23 1246.69 278.296C1249.23 287.466 1253.26 296.159 1258.61 304.033C1263.72 311.539 1270.12 318.086 1277.5 323.375C1285.21 328.854 1293.81 332.956 1302.92 335.501C1313.08 338.416 1323.62 339.835 1334.19 339.715C1348.37 340.058 1362.5 337.787 1375.86 333.015C1386.63 329.084 1396.21 322.468 1403.7 313.795C1410.98 305 1416.24 294.728 1419.14 283.692L1379.08 276.537C1377.55 282.453 1374.65 287.926 1370.61 292.514C1366.51 296.988 1361.38 300.392 1355.66 302.427C1348.85 304.854 1341.66 306.025 1334.43 305.883C1328.4 305.948 1322.39 305.016 1316.66 303.124C1311.58 301.402 1306.84 298.817 1302.65 295.485C1298.58 292.131 1295.21 288.011 1292.73 283.358C1289.99 278.255 1288.01 272.782 1286.84 267.109C1286.23 264.207 1285.77 261.272 1285.48 258.318H1418.75C1419.41 255.591 1419.85 252.812 1420.05 250.011C1420.26 246.98 1420.35 244.1 1420.35 241.068C1420.57 229.02 1418.51 217.039 1414.29 205.751C1410.33 195.551 1404.25 186.304 1396.46 178.619ZM1292.91 211.39C1295.5 206.815 1298.86 202.714 1302.83 199.264C1306.84 195.841 1311.49 193.244 1316.51 191.624C1322.19 189.808 1328.13 188.918 1334.1 188.987C1340.56 188.904 1346.97 190.067 1352.99 192.412C1358.43 194.572 1363.37 197.834 1367.49 201.992C1371.63 206.328 1374.79 211.495 1376.77 217.15C1378.2 221.259 1379.14 225.523 1379.56 229.852H1286.42C1286.57 229.003 1286.69 228.124 1286.87 227.245C1288.04 221.676 1290.08 216.326 1292.91 211.39Z" fill="#111111"/>
<path d="M1549.34 155.396C1548.67 155.149 1547.94 155.046 1547.22 155.093H1544.46C1535.25 155.108 1526.19 157.399 1518.08 161.762C1509.3 166.475 1501.51 172.836 1495.15 180.497C1490.82 185.591 1487.07 191.142 1483.95 197.049L1479.98 158.276H1441.86V336.349H1485.17V258.317C1485.06 251.629 1485.82 244.956 1487.41 238.46C1488.8 232.948 1491.01 227.675 1493.96 222.817C1496.69 218.363 1500.22 214.449 1504.37 211.267C1508.56 208.08 1513.31 205.705 1518.38 204.264C1523.99 202.683 1529.8 201.907 1535.64 201.96C1538.03 201.96 1540.31 201.96 1542.46 202.294C1544.33 202.456 1546.19 202.781 1548.01 203.264L1549.34 155.396Z" fill="#111111"/>
<path d="M1678.52 238.34C1666.85 233.696 1654.61 230.638 1642.13 229.245L1621.6 226.668C1615.72 226.075 1609.93 224.824 1604.34 222.939C1600.65 221.757 1597.38 219.549 1594.91 216.573C1592.8 213.64 1591.73 210.087 1591.87 206.478C1591.81 202.559 1593.26 198.767 1595.94 195.898C1599.13 192.687 1603.12 190.385 1607.49 189.229C1613.31 187.601 1619.34 186.835 1625.39 186.955C1631.99 186.755 1638.57 187.783 1644.8 189.987C1649.81 191.826 1654.17 195.106 1657.32 199.415C1660.54 204.125 1662.56 209.545 1663.21 215.209L1702.64 210.298C1701.38 199.105 1697.19 188.441 1690.5 179.376C1683.79 170.919 1674.81 164.547 1664.6 161.005C1651.92 156.695 1638.57 154.643 1625.17 154.942C1611.7 154.667 1598.3 157.057 1585.75 161.975C1575.5 165.929 1566.59 172.71 1560.06 181.529C1554.04 190.034 1550.9 200.245 1551.11 210.662C1550.84 219.668 1553.22 228.555 1557.96 236.218C1563.03 243.688 1570.08 249.599 1578.32 253.285C1589 258.084 1600.39 261.154 1612.04 262.38L1633.55 264.987C1639.75 265.54 1645.86 266.843 1651.74 268.867C1655.65 270.132 1659.1 272.501 1661.69 275.688C1663.87 278.953 1664.93 282.835 1664.72 286.753C1664.79 289.789 1664 292.782 1662.45 295.393C1660.76 298.056 1658.48 300.288 1655.78 301.911C1652.31 303.956 1648.51 305.392 1644.55 306.155C1639.19 307.199 1633.73 307.686 1628.27 307.61C1618.22 308.101 1608.27 305.498 1599.76 300.153C1592.48 295.181 1587.97 287.097 1586.23 275.9L1546.5 281.448C1548.31 293.246 1552.77 304.481 1559.54 314.31C1566.26 323.312 1575.59 330.024 1586.26 333.53C1600.25 337.973 1614.9 340.023 1629.57 339.593C1643.91 339.949 1658.18 337.508 1671.58 332.408C1682.11 328.388 1691.27 321.433 1697.96 312.37C1704.1 303.469 1707.29 292.863 1707.06 282.054C1707.45 272.644 1705.07 263.327 1700.21 255.256C1694.84 247.569 1687.29 241.675 1678.52 238.34Z" fill="#111111"/>
<path d="M1893.65 249.769C1893.86 246.737 1893.98 243.857 1893.98 240.826C1894.2 228.777 1892.14 216.796 1887.92 205.508C1884 195.253 1877.94 185.951 1870.14 178.224C1862.31 170.543 1852.93 164.612 1842.64 160.823C1831.27 156.647 1819.23 154.592 1807.12 154.76C1796.54 154.655 1786 156.137 1775.85 159.156C1766.74 161.876 1758.16 166.12 1750.46 171.707C1743.15 177.056 1736.86 183.68 1731.9 191.26C1726.8 199.101 1722.9 207.665 1720.35 216.664C1717.58 226.528 1716.22 236.735 1716.31 246.98C1716.23 257.425 1717.6 267.831 1720.38 277.901C1722.92 287.072 1726.95 295.765 1732.3 303.639C1737.43 311.13 1743.82 317.675 1751.19 322.98C1758.91 328.435 1767.51 332.535 1776.61 335.107C1786.71 338.074 1797.19 339.565 1807.73 339.533C1821.91 339.879 1836.04 337.608 1849.4 332.833C1860.18 328.918 1869.76 322.299 1877.24 313.613C1884.53 304.827 1889.81 294.552 1892.71 283.51L1852.64 276.355C1851.1 282.264 1848.2 287.733 1844.18 292.331C1840.07 296.8 1834.92 300.202 1829.2 302.245C1822.39 304.662 1815.2 305.833 1807.97 305.701C1801.94 305.766 1795.95 304.834 1790.23 302.942C1785.15 301.233 1780.4 298.648 1776.21 295.302C1772.13 291.959 1768.75 287.837 1766.27 283.176C1763.54 278.067 1761.56 272.596 1760.38 266.927C1759.81 264.108 1759.35 261.167 1759.02 258.136H1892.29C1892.99 255.393 1893.45 252.593 1893.65 249.769ZM1766.45 211.117C1769.05 206.549 1772.41 202.45 1776.37 198.99C1780.38 195.568 1785.03 192.971 1790.04 191.351C1795.73 189.521 1801.67 188.63 1807.64 188.714C1814.1 188.629 1820.51 189.792 1826.53 192.139C1831.98 194.284 1836.92 197.548 1841.03 201.719C1845.2 206.083 1848.37 211.308 1850.31 217.028C1851.73 221.14 1852.68 225.402 1853.13 229.73H1759.96C1760.11 228.881 1760.26 227.972 1760.44 227.123C1761.6 221.508 1763.63 216.107 1766.45 211.117Z" fill="#111111"/>
<path d="M208.789 291.301L167.42 445L105.578 428.388L132.602 328.044L133.36 325.679L134.331 323.405L135.513 321.253L136.878 319.222L138.425 317.312L140.154 315.584L142.065 313.977L143.399 313.038L144.824 312.158L282.126 232.853L284.34 231.701L286.645 230.792L289.011 230.095L291.407 229.61L293.864 229.367H296.32L298.777 229.61L300.415 229.883L302.053 230.246L402.382 256.924L385.853 318.313L232.81 277.478L230.93 277.084L229.049 276.871H227.169L225.349 277.023L223.56 277.326L221.801 277.811L220.102 278.417L218.465 279.206L216.918 280.115L215.462 281.176L214.097 282.389L212.853 283.692L211.731 285.147L210.731 286.694L209.881 288.361C209.881 288.361 209.396 289.483 208.789 291.301Z" fill="#111111"/>
<path d="M112.492 208.933L0 96.2813L45.4942 51.0811L118.922 124.626L120.59 126.475L122.076 128.446L123.35 130.538L124.412 132.751L125.291 135.024L125.928 137.389L126.353 139.814L126.535 141.482V143.119V301.638V304.124L126.171 306.579L125.594 308.974L124.806 311.308L123.775 313.552L122.562 315.674L121.136 317.705L120.074 318.978L118.952 320.191L45.6762 393.736L0.576267 348.627L112.462 236.46L113.766 235.035L114.888 233.519L115.859 231.912L116.647 230.275L117.284 228.547L117.769 226.789L118.073 225V223.212V221.423L117.891 219.604L117.527 217.846L117.011 216.088L116.314 214.39L115.464 212.753L114.463 211.207C114.463 211.207 113.766 210.388 112.492 208.933Z" fill="#111111"/>
<path d="M232.027 166.735L385.858 125.688L402.387 187.531L302.027 214.36L299.601 214.875L297.144 215.179H294.687L292.231 214.997L289.835 214.603L287.439 213.996L285.134 213.147L283.617 212.45L282.161 211.662L144.799 132.478L142.706 131.114L140.735 129.598L138.945 127.901L137.338 126.051L135.913 124.051L134.669 121.928L133.607 119.685L133.031 118.109L132.546 116.532L105.492 16.4916L166.909 0L208.006 152.88L208.582 154.73L209.34 156.458L210.25 158.095L211.281 159.611L212.434 161.005L213.738 162.309L215.133 163.461L216.619 164.491L218.196 165.37L219.834 166.098L221.533 166.674L223.322 167.098L225.142 167.341H226.992H228.842C228.842 167.341 230.116 167.159 232.027 166.735Z" fill="#111111"/>
</svg>
