<svg width="1894" height="446" viewBox="0 0 1894 446" fill="none" xmlns="http://www.w3.org/2000/svg">
<path d="M614.288 147.147L614.258 109.32L501.25 109.38L454.998 109.411L455.15 337.804L501.372 337.773L501.341 249.661L599.033 249.6V211.773L501.311 211.834L501.281 147.208L614.288 147.147Z" fill="#F93549"/>
<path d="M677.199 159.209H633.889V337.682H677.199V159.209Z" fill="#F93549"/>
<path d="M677.772 94.9187H633.157V136.028H677.772V94.9187Z" fill="#F93549"/>
<path d="M869.003 186.342C864.279 176.917 856.897 169.089 847.772 163.828C837.554 158.255 826.039 155.508 814.41 155.868C805.914 155.8 797.474 157.24 789.479 160.121C781.854 162.871 774.794 166.99 768.643 172.275C762.304 177.783 756.968 184.353 752.871 191.69L749.596 159.058H711.472V337.531H754.782V241.944C754.693 235.112 755.791 228.316 758.027 221.86C759.979 216.221 763.078 211.048 767.126 206.669C771.032 202.533 775.751 199.253 780.987 197.037C786.49 194.698 792.418 193.529 798.396 193.604C805.041 193.351 811.629 194.927 817.443 198.161C822.548 201.176 826.636 205.652 829.18 211.014C832.021 217.083 833.422 223.727 833.275 230.429V337.47H876.585V220.645C876.85 208.766 874.249 196.999 869.003 186.342Z" fill="#F93549"/>
<path d="M1061.81 191.416C1056.89 183.897 1050.65 177.33 1043.4 172.031C1035.82 166.521 1027.33 162.405 1018.32 159.878C1008.19 157.077 997.73 155.707 987.229 155.806C976.775 155.706 966.36 157.086 956.293 159.908C947.335 162.463 938.896 166.577 931.362 172.062C924.118 177.372 917.892 183.949 912.982 191.477C907.831 199.43 903.934 208.13 901.427 217.272C898.648 227.364 897.291 237.795 897.393 248.263C897.328 258.821 898.695 269.339 901.457 279.528C903.94 288.674 907.85 297.37 913.043 305.293C918.001 312.749 924.233 319.27 931.453 324.556C938.986 330.044 947.425 334.158 956.384 336.71C966.451 339.532 976.867 340.903 987.32 340.781C997.834 340.884 1008.31 339.503 1018.44 336.679C1027.45 334.157 1035.93 330.041 1043.49 324.526C1050.72 319.256 1056.96 312.732 1061.9 305.263C1067.06 297.349 1070.9 288.647 1073.27 279.498C1075.95 269.222 1077.25 258.638 1077.16 248.02C1077.24 237.561 1075.92 227.138 1073.24 217.029C1070.8 207.943 1066.94 199.299 1061.81 191.416ZM1030.93 268.286C1029.98 273.859 1028.17 279.251 1025.57 284.268C1023.25 288.698 1020.17 292.68 1016.47 296.026C1012.77 299.259 1008.46 301.699 1003.79 303.197C998.469 304.906 992.907 305.737 987.32 305.658C981.804 305.753 976.311 304.932 971.063 303.227C966.444 301.696 962.176 299.258 958.507 296.057C954.792 292.73 951.71 288.756 949.408 284.329C946.796 279.298 944.927 273.915 943.858 268.347C942.611 261.727 942.012 255 942.069 248.263C942.015 241.639 942.604 235.025 943.827 228.514C944.887 222.944 946.757 217.559 949.378 212.532C951.698 208.108 954.778 204.128 958.477 200.774C962.111 197.541 966.377 195.099 971.003 193.604C976.313 191.898 981.865 191.067 987.441 191.142C993.025 191.07 998.585 191.891 1003.91 193.573C1008.58 195.102 1012.89 197.538 1016.62 200.744C1020.32 204.09 1023.41 208.072 1025.72 212.502C1028.32 217.519 1030.13 222.911 1031.09 228.484C1032.22 234.994 1032.77 241.594 1032.72 248.203C1032.71 254.886 1032.11 261.555 1030.93 268.134V268.286Z" fill="#F93549"/>
<path d="M1205.42 158.875L1161.89 279.437L1118.46 158.936L1072.54 158.967L1143.64 337.379H1177.51L1247.42 158.875H1205.42Z" fill="#F93549"/>
<path d="M1396.46 179.019C1388.61 171.314 1379.23 165.369 1368.92 161.579C1357.55 157.39 1345.51 155.33 1333.4 155.502C1322.83 155.396 1312.3 156.881 1302.16 159.907C1293.04 162.64 1284.45 166.893 1276.74 172.486C1269.44 177.849 1263.16 184.488 1258.21 192.084C1253.1 199.939 1249.21 208.523 1246.66 217.545C1243.88 227.43 1242.51 237.659 1242.59 247.928C1242.51 258.4 1243.88 268.832 1246.69 278.92C1249.23 288.11 1253.26 296.823 1258.61 304.715C1263.72 312.237 1270.12 318.799 1277.5 324.1C1285.21 329.591 1293.81 333.703 1302.92 336.253C1313.08 339.175 1323.62 340.597 1334.19 340.477C1348.37 340.821 1362.5 338.545 1375.86 333.762C1386.63 329.822 1396.21 323.191 1403.7 314.499C1410.98 305.684 1416.24 295.388 1419.14 284.328L1379.08 277.157C1377.55 283.086 1374.65 288.572 1370.61 293.17C1366.51 297.654 1361.38 301.065 1355.66 303.105C1348.85 305.538 1341.66 306.712 1334.43 306.569C1328.4 306.634 1322.39 305.7 1316.66 303.804C1311.58 302.078 1306.84 299.487 1302.65 296.147C1298.58 292.786 1295.21 288.657 1292.73 283.994C1289.99 278.879 1288.01 273.393 1286.84 267.708C1286.23 264.799 1285.77 261.857 1285.48 258.897H1418.75C1419.41 256.163 1419.85 253.379 1420.05 250.572C1420.26 247.533 1420.35 244.647 1420.35 241.609C1420.57 229.533 1418.51 217.525 1414.29 206.212C1410.33 195.989 1404.25 186.721 1396.46 179.019ZM1292.91 211.863C1295.5 207.278 1298.86 203.168 1302.83 199.71C1306.84 196.279 1311.49 193.677 1316.51 192.053C1322.19 190.233 1328.13 189.341 1334.1 189.41C1340.56 189.327 1346.97 190.493 1352.99 192.843C1358.43 195.008 1363.37 198.277 1367.49 202.444C1371.63 206.79 1374.79 211.969 1376.77 217.636C1378.2 221.755 1379.14 226.028 1379.56 230.367H1286.42C1286.57 229.516 1286.69 228.635 1286.87 227.754C1288.04 222.173 1290.08 216.811 1292.91 211.863Z" fill="#F93549"/>
<path d="M1549.34 155.745C1548.67 155.497 1547.94 155.394 1547.22 155.441H1544.46C1535.25 155.456 1526.19 157.752 1518.08 162.125C1509.3 166.849 1501.51 173.224 1495.15 180.902C1490.82 186.008 1487.07 191.571 1483.95 197.492L1479.98 158.631H1441.86V337.104H1485.17V258.897C1485.06 252.194 1485.82 245.506 1487.41 238.996C1488.8 233.471 1491.01 228.186 1493.96 223.318C1496.69 218.854 1500.22 214.93 1504.37 211.742C1508.56 208.547 1513.31 206.167 1518.38 204.723C1523.99 203.138 1529.8 202.36 1535.64 202.414C1538.03 202.414 1540.31 202.414 1542.46 202.748C1544.33 202.911 1546.19 203.236 1548.01 203.72L1549.34 155.745Z" fill="#F93549"/>
<path d="M1678.52 238.874C1666.85 234.22 1654.61 231.155 1642.13 229.759L1621.6 227.176C1615.72 226.582 1609.93 225.328 1604.34 223.439C1600.65 222.254 1597.38 220.041 1594.91 217.059C1592.8 214.119 1591.73 210.558 1591.87 206.941C1591.81 203.013 1593.26 199.212 1595.94 196.337C1599.13 193.119 1603.12 190.812 1607.49 189.653C1613.31 188.022 1619.34 187.254 1625.39 187.374C1631.99 187.174 1638.57 188.204 1644.8 190.412C1649.81 192.256 1654.17 195.544 1657.32 199.862C1660.54 204.582 1662.56 210.015 1663.21 215.692L1702.64 210.769C1701.38 199.551 1697.19 188.863 1690.5 179.778C1683.79 171.302 1674.81 164.916 1664.6 161.366C1651.92 157.046 1638.57 154.99 1625.17 155.289C1611.7 155.013 1598.3 157.409 1585.75 162.338C1575.5 166.301 1566.59 173.097 1560.06 181.935C1554.04 190.46 1550.9 200.693 1551.11 211.134C1550.84 220.16 1553.22 229.067 1557.96 236.747C1563.03 244.235 1570.08 250.159 1578.32 253.853C1589 258.662 1600.39 261.739 1612.04 262.968L1633.55 265.581C1639.75 266.135 1645.86 267.441 1651.74 269.47C1655.65 270.738 1659.1 273.112 1661.69 276.307C1663.87 279.579 1664.93 283.469 1664.72 287.397C1664.79 290.439 1664 293.439 1662.45 296.056C1660.76 298.724 1658.48 300.961 1655.78 302.588C1652.31 304.638 1648.51 306.077 1644.55 306.842C1639.19 307.888 1633.73 308.376 1628.27 308.3C1618.22 308.792 1608.27 306.183 1599.76 300.826C1592.48 295.843 1587.97 287.741 1586.23 276.519L1546.5 282.079C1548.31 293.904 1552.77 305.165 1559.54 315.015C1566.26 324.038 1575.59 330.765 1586.26 334.278C1600.25 338.732 1614.9 340.786 1629.57 340.355C1643.91 340.711 1658.18 338.266 1671.58 333.154C1682.11 329.124 1691.27 322.155 1697.96 313.071C1704.1 304.15 1707.29 293.52 1707.06 282.687C1707.45 273.255 1705.07 263.917 1700.21 255.828C1694.84 248.124 1687.29 242.217 1678.52 238.874Z" fill="#F93549"/>
<path d="M1893.65 250.331C1893.86 247.292 1893.98 244.406 1893.98 241.367C1894.2 229.292 1892.14 217.284 1887.92 205.971C1884 195.692 1877.94 186.37 1870.14 178.626C1862.31 170.927 1852.93 164.983 1842.64 161.185C1831.27 157 1819.23 154.94 1807.12 155.109C1796.54 155.003 1786 156.488 1775.85 159.514C1766.74 162.241 1758.16 166.494 1750.46 172.093C1743.15 177.455 1736.86 184.094 1731.9 191.69C1726.8 199.549 1722.9 208.132 1720.35 217.152C1717.58 227.038 1716.22 237.267 1716.31 247.535C1716.23 258.004 1717.6 268.434 1720.38 278.527C1722.92 287.717 1726.95 296.43 1732.3 304.322C1737.43 311.83 1743.82 318.389 1751.19 323.707C1758.91 329.173 1767.51 333.283 1776.61 335.86C1786.71 338.835 1797.19 340.329 1807.73 340.296C1821.91 340.643 1836.04 338.367 1849.4 333.581C1860.18 329.657 1869.76 323.024 1877.24 314.318C1884.53 305.513 1889.81 295.215 1892.71 284.147L1852.64 276.977C1851.1 282.899 1848.2 288.381 1844.18 292.989C1840.07 297.468 1834.92 300.877 1829.2 302.924C1822.39 305.348 1815.2 306.521 1807.97 306.388C1801.94 306.454 1795.95 305.52 1790.23 303.623C1785.15 301.911 1780.4 299.319 1776.21 295.967C1772.13 292.615 1768.75 288.484 1766.27 283.813C1763.54 278.692 1761.56 273.209 1760.38 267.528C1759.81 264.702 1759.35 261.755 1759.02 258.716H1892.29C1892.99 255.968 1893.45 253.161 1893.65 250.331ZM1766.45 211.592C1769.05 207.014 1772.41 202.905 1776.37 199.438C1780.38 196.008 1785.03 193.406 1790.04 191.782C1795.73 189.947 1801.67 189.054 1807.64 189.138C1814.1 189.053 1820.51 190.219 1826.53 192.572C1831.98 194.721 1836.92 197.992 1841.03 202.173C1845.2 206.546 1848.37 211.784 1850.31 217.516C1851.73 221.638 1852.68 225.909 1853.13 230.247H1759.96C1760.11 229.396 1760.26 228.485 1760.44 227.634C1761.6 222.006 1763.63 216.594 1766.45 211.592Z" fill="#F93549"/>
<path d="M208.789 291.956L167.42 446L105.578 429.35L132.602 328.781L133.36 326.411L134.331 324.132L135.513 321.975L136.878 319.939L138.425 318.025L140.154 316.293L142.065 314.683L143.399 313.741L144.824 312.86L282.126 233.376L284.34 232.222L286.645 231.31L289.011 230.611L291.407 230.125L293.864 229.882H296.32L298.777 230.125L300.415 230.399L302.053 230.763L402.382 257.501L385.853 319.028L232.81 278.101L230.93 277.706L229.049 277.493H227.169L225.349 277.645L223.56 277.949L221.801 278.435L220.102 279.043L218.465 279.833L216.918 280.744L215.462 281.808L214.097 283.023L212.853 284.33L211.731 285.788L210.731 287.338L209.881 289.009C209.881 289.009 209.396 290.133 208.789 291.956Z" fill="#F93549"/>
<path d="M112.492 209.404L0 96.4986L45.4942 51.1968L118.922 124.907L120.59 126.761L122.076 128.736L123.35 130.832L124.412 133.05L125.291 135.329L125.928 137.699L126.353 140.129L126.535 141.8V143.441V302.317V304.808L126.171 307.269L125.594 309.669L124.806 312.009L123.775 314.257L122.562 316.384L121.136 318.42L120.074 319.696L118.952 320.911L45.6762 394.622L0.576267 349.411L112.462 236.992L113.766 235.564L114.888 234.045L115.859 232.434L116.647 230.794L117.284 229.062L117.769 227.3L118.073 225.507V223.714V221.922L117.891 220.099L117.527 218.336L117.011 216.574L116.314 214.873L115.464 213.232L114.463 211.682C114.463 211.682 113.766 210.862 112.492 209.404Z" fill="#F93549"/>
<path d="M232.027 167.109L385.858 125.97L402.387 187.952L302.027 214.842L299.601 215.358L297.144 215.662H294.687L292.231 215.48L289.835 215.085L287.439 214.477L285.134 213.626L283.617 212.928L282.161 212.138L144.799 132.776L142.706 131.409L140.735 129.89L138.945 128.188L137.338 126.335L135.913 124.329L134.669 122.202L133.607 119.954L133.031 118.374L132.546 116.794L105.492 16.5286L166.909 0L208.006 153.224L208.582 155.077L209.34 156.809L210.25 158.45L211.281 159.969L212.434 161.367L213.738 162.673L215.133 163.828L216.619 164.861L218.196 165.742L219.834 166.471L221.533 167.049L223.322 167.474L225.142 167.717H226.992H228.842C228.842 167.717 230.116 167.535 232.027 167.109Z" fill="#F93549"/>
</svg>
