<svg width="1894" height="443" viewBox="0 0 1894 443" fill="none" xmlns="http://www.w3.org/2000/svg">
<path d="M614.288 146.158L614.258 108.585L501.25 108.646L454.998 108.676L455.15 335.533L501.372 335.502L501.341 247.983L599.033 247.923V210.349L501.311 210.41L501.281 146.219L614.288 146.158Z" fill="white"/>
<path d="M677.199 158.139H633.889V335.411H677.199V158.139Z" fill="white"/>
<path d="M677.772 94.2783H633.157V135.111H677.772V94.2783Z" fill="white"/>
<path d="M869.003 185.088C864.279 175.726 856.897 167.951 847.772 162.725C837.554 157.19 826.039 154.461 814.41 154.818C805.914 154.751 797.474 156.182 789.479 159.043C781.854 161.775 774.794 165.865 768.643 171.115C762.304 176.587 756.968 183.112 752.871 190.399L749.596 157.987H711.472V335.259H754.782V240.316C754.693 233.529 755.791 226.779 758.027 220.367C759.979 214.766 763.078 209.628 767.126 205.278C771.032 201.169 775.751 197.912 780.987 195.711C786.49 193.388 792.418 192.226 798.396 192.301C805.041 192.05 811.629 193.615 817.443 196.828C822.548 199.822 826.636 204.268 829.18 209.593C832.021 215.622 833.422 222.222 833.275 228.878V335.199H876.585V219.16C876.85 207.361 874.249 195.673 869.003 185.088Z" fill="white"/>
<path d="M1061.81 190.13C1056.89 182.661 1050.65 176.139 1043.4 170.876C1035.82 165.402 1027.33 161.315 1018.32 158.804C1008.19 156.022 997.73 154.661 987.229 154.76C976.775 154.66 966.36 156.031 956.293 158.834C947.335 161.371 938.896 165.458 931.362 170.906C924.118 176.18 917.892 182.713 912.982 190.19C907.831 198.09 903.934 206.732 901.427 215.812C898.648 225.836 897.291 236.197 897.393 246.595C897.328 257.082 898.695 267.529 901.457 277.649C903.94 286.734 907.85 295.372 913.043 303.241C918.001 310.647 924.233 317.124 931.453 322.375C938.986 327.825 947.425 331.912 956.384 334.447C966.451 337.25 976.867 338.611 987.32 338.491C997.834 338.593 1008.31 337.221 1018.44 334.416C1027.45 331.911 1035.93 327.823 1043.49 322.345C1050.72 317.11 1056.96 310.63 1061.9 303.211C1067.06 295.351 1070.9 286.707 1073.27 277.619C1075.95 267.413 1077.25 256.9 1077.16 246.354C1077.24 235.965 1075.92 225.612 1073.24 215.571C1070.8 206.545 1066.94 197.96 1061.81 190.13ZM1030.93 266.483C1029.98 272.019 1028.17 277.374 1025.57 282.357C1023.25 286.758 1020.17 290.713 1016.47 294.037C1012.77 297.247 1008.46 299.671 1003.79 301.159C998.469 302.856 992.907 303.682 987.32 303.604C981.804 303.698 976.311 302.882 971.063 301.189C966.444 299.668 962.176 297.247 958.507 294.067C954.792 290.762 951.71 286.815 949.408 282.418C946.796 277.421 944.927 272.074 943.858 266.544C942.611 259.968 942.012 253.287 942.069 246.595C942.015 240.015 942.604 233.445 943.827 226.979C944.887 221.446 946.757 216.097 949.378 211.104C951.698 206.71 954.778 202.756 958.477 199.425C962.111 196.213 966.377 193.788 971.003 192.303C976.313 190.609 981.865 189.783 987.441 189.858C993.025 189.786 998.585 190.601 1003.91 192.273C1008.58 193.791 1012.89 196.211 1016.62 199.395C1020.32 202.719 1023.41 206.674 1025.72 211.074C1028.32 216.058 1030.13 221.413 1031.09 226.948C1032.22 233.415 1032.77 239.97 1032.72 246.535C1032.71 253.173 1032.11 259.797 1030.93 266.332V266.483Z" fill="white"/>
<path d="M1205.42 157.808L1161.89 277.558L1118.46 157.868L1072.54 157.898L1143.64 335.11H1177.51L1247.42 157.808H1205.42Z" fill="white"/>
<path d="M1396.46 177.817C1388.61 170.164 1379.23 164.259 1368.92 160.494C1357.55 156.334 1345.51 154.288 1333.4 154.458C1322.83 154.353 1312.3 155.828 1302.16 158.834C1293.04 161.549 1284.45 165.772 1276.74 171.328C1269.44 176.655 1263.16 183.249 1258.21 190.794C1253.1 198.596 1249.21 207.122 1246.66 216.084C1243.88 225.902 1242.51 236.063 1242.59 246.263C1242.51 256.664 1243.88 267.025 1246.69 277.046C1249.23 286.175 1253.26 294.829 1258.61 302.668C1263.72 310.139 1270.12 316.657 1277.5 321.922C1285.21 327.376 1293.81 331.461 1302.92 333.994C1313.08 336.895 1323.62 338.308 1334.19 338.189C1348.37 338.531 1362.5 336.27 1375.86 331.519C1386.63 327.606 1396.21 321.02 1403.7 312.385C1410.98 303.63 1416.24 293.404 1419.14 282.418L1379.08 275.295C1377.55 281.184 1374.65 286.633 1370.61 291.2C1366.51 295.654 1361.38 299.043 1355.66 301.068C1348.85 303.485 1341.66 304.651 1334.43 304.509C1328.4 304.574 1322.39 303.646 1316.66 301.762C1311.58 300.048 1306.84 297.475 1302.65 294.157C1298.58 290.819 1295.21 286.717 1292.73 282.086C1289.99 277.005 1288.01 271.556 1286.84 265.91C1286.23 263.02 1285.77 260.098 1285.48 257.158H1418.75C1419.41 254.443 1419.85 251.676 1420.05 248.889C1420.26 245.871 1420.35 243.004 1420.35 239.986C1420.57 227.991 1418.51 216.064 1414.29 204.827C1410.33 194.672 1404.25 185.467 1396.46 177.817ZM1292.91 210.44C1295.5 205.886 1298.86 201.804 1302.83 198.369C1306.84 194.961 1311.49 192.377 1316.51 190.764C1322.19 188.956 1328.13 188.07 1334.1 188.138C1340.56 188.056 1346.97 189.214 1352.99 191.548C1358.43 193.699 1363.37 196.945 1367.49 201.085C1371.63 205.401 1374.79 210.545 1376.77 216.174C1378.2 220.265 1379.14 224.51 1379.56 228.819H1286.42C1286.57 227.974 1286.69 227.099 1286.87 226.224C1288.04 220.681 1290.08 215.354 1292.91 210.44Z" fill="white"/>
<path d="M1549.34 154.699C1548.67 154.453 1547.94 154.35 1547.22 154.397H1544.46C1535.25 154.412 1526.19 156.693 1518.08 161.037C1509.3 165.728 1501.51 172.061 1495.15 179.687C1490.82 184.759 1487.07 190.284 1483.95 196.165L1479.98 157.566H1441.86V334.838H1485.17V257.157C1485.06 250.5 1485.82 243.856 1487.41 237.39C1488.8 231.902 1491.01 226.653 1493.96 221.817C1496.69 217.384 1500.22 213.486 1504.37 210.319C1508.56 207.146 1513.31 204.782 1518.38 203.348C1523.99 201.773 1529.8 201.001 1535.64 201.054C1538.03 201.054 1540.31 201.054 1542.46 201.386C1544.33 201.547 1546.19 201.871 1548.01 202.352L1549.34 154.699Z" fill="white"/>
<path d="M1678.52 237.268C1666.85 232.646 1654.61 229.601 1642.13 228.214L1621.6 225.649C1615.72 225.058 1609.93 223.813 1604.34 221.937C1600.65 220.76 1597.38 218.562 1594.91 215.599C1592.8 212.679 1591.73 209.142 1591.87 205.55C1591.81 201.648 1593.26 197.873 1595.94 195.017C1599.13 191.821 1603.12 189.529 1607.49 188.378C1613.31 186.758 1619.34 185.995 1625.39 186.114C1631.99 185.915 1638.57 186.939 1644.8 189.132C1649.81 190.963 1654.17 194.229 1657.32 198.518C1660.54 203.207 1662.56 208.603 1663.21 214.241L1702.64 209.352C1701.38 198.21 1697.19 187.593 1690.5 178.57C1683.79 170.151 1674.81 163.807 1664.6 160.281C1651.92 155.991 1638.57 153.948 1625.17 154.245C1611.7 153.971 1598.3 156.351 1585.75 161.247C1575.5 165.183 1566.59 171.933 1560.06 180.712C1554.04 189.18 1550.9 199.344 1551.11 209.714C1550.84 218.68 1553.22 227.527 1557.96 235.155C1563.03 242.592 1570.08 248.477 1578.32 252.146C1589 256.923 1600.39 259.979 1612.04 261.2L1633.55 263.795C1639.75 264.346 1645.86 265.643 1651.74 267.658C1655.65 268.917 1659.1 271.276 1661.69 274.449C1663.87 277.699 1664.93 281.563 1664.72 285.464C1664.79 288.486 1664 291.466 1662.45 294.065C1660.76 296.716 1658.48 298.938 1655.78 300.554C1652.31 302.589 1648.51 304.018 1644.55 304.779C1639.19 305.817 1633.73 306.303 1628.27 306.227C1618.22 306.716 1608.27 304.124 1599.76 298.803C1592.48 293.854 1587.97 285.806 1586.23 274.66L1546.5 280.183C1548.31 291.928 1552.77 303.112 1559.54 312.897C1566.26 321.859 1575.59 328.54 1586.26 332.03C1600.25 336.454 1614.9 338.494 1629.57 338.066C1643.91 338.42 1658.18 335.991 1671.58 330.914C1682.11 326.911 1691.27 319.988 1697.96 310.965C1704.1 302.104 1707.29 291.547 1707.06 280.786C1707.45 271.418 1705.07 262.143 1700.21 254.108C1694.84 246.456 1687.29 240.588 1678.52 237.268Z" fill="white"/>
<path d="M1893.65 248.647C1893.86 245.629 1893.98 242.762 1893.98 239.744C1894.2 227.749 1892.14 215.822 1887.92 204.585C1884 194.376 1877.94 185.116 1870.14 177.424C1862.31 169.777 1852.93 163.873 1842.64 160.101C1831.27 155.944 1819.23 153.898 1807.12 154.065C1796.54 153.96 1786 155.435 1775.85 158.441C1766.74 161.149 1758.16 165.374 1750.46 170.935C1743.15 176.261 1736.86 182.855 1731.9 190.401C1726.8 198.207 1722.9 206.732 1720.35 215.691C1717.58 225.511 1716.22 235.671 1716.31 245.87C1716.23 256.268 1717.6 266.628 1720.38 276.653C1722.92 285.782 1726.95 294.436 1732.3 302.275C1737.43 309.733 1743.82 316.247 1751.19 321.529C1758.91 326.959 1767.51 331.041 1776.61 333.601C1786.71 336.555 1797.19 338.039 1807.73 338.007C1821.91 338.352 1836.04 336.091 1849.4 331.337C1860.18 327.44 1869.76 320.851 1877.24 312.204C1884.53 303.457 1889.81 293.229 1892.71 282.236L1852.64 275.114C1851.1 280.996 1848.2 286.441 1844.18 291.018C1840.07 295.467 1834.92 298.853 1829.2 300.887C1822.39 303.294 1815.2 304.459 1807.97 304.327C1801.94 304.392 1795.95 303.464 1790.23 301.581C1785.15 299.88 1780.4 297.306 1776.21 293.976C1772.13 290.647 1768.75 286.544 1766.27 281.904C1763.54 276.818 1761.56 271.371 1760.38 265.728C1759.81 262.921 1759.35 259.994 1759.02 256.976H1892.29C1892.99 254.246 1893.45 251.458 1893.65 248.647ZM1766.45 210.168C1769.05 205.621 1772.41 201.54 1776.37 198.097C1780.38 194.689 1785.03 192.104 1790.04 190.491C1795.73 188.669 1801.67 187.783 1807.64 187.866C1814.1 187.781 1820.51 188.939 1826.53 191.276C1831.98 193.411 1836.92 196.66 1841.03 200.813C1845.2 205.157 1848.37 210.359 1850.31 216.053C1851.73 220.147 1852.68 224.39 1853.13 228.698H1759.96C1760.11 227.853 1760.26 226.948 1760.44 226.103C1761.6 220.513 1763.63 215.137 1766.45 210.168Z" fill="white"/>
<path d="M208.789 289.992L167.42 443L105.578 426.462L132.602 326.569L133.36 324.215L134.331 321.952L135.513 319.809L136.878 317.787L138.425 315.886L140.154 314.165L142.065 312.566L143.399 311.63L144.824 310.755L282.126 231.807L284.34 230.66L286.645 229.754L289.011 229.06L291.407 228.577L293.864 228.336H296.32L298.777 228.577L300.415 228.849L302.053 229.211L402.382 255.769L385.853 316.882L232.81 276.23L230.93 275.838L229.049 275.627H227.169L225.349 275.778L223.56 276.079L221.801 276.562L220.102 277.166L218.465 277.95L216.918 278.856L215.462 279.912L214.097 281.119L212.853 282.417L211.731 283.866L210.731 285.405L209.881 287.065C209.881 287.065 209.396 288.181 208.789 289.992Z" fill="#F93549"/>
<path d="M112.492 207.995L0 95.8496L45.4942 50.8525L118.922 124.067L120.59 125.908L122.076 127.87L123.35 129.952L124.412 132.155L125.291 134.419L125.928 136.773L126.353 139.187L126.535 140.847V142.476V300.283V302.758L126.171 305.202L125.594 307.586L124.806 309.91L123.775 312.144L122.562 314.256L121.136 316.278L120.074 317.546L118.952 318.753L45.6762 391.967L0.576267 347.061L112.462 235.398L113.766 233.98L114.888 232.471L115.859 230.871L116.647 229.241L117.284 227.521L117.769 225.771L118.073 223.99V222.21V220.429L117.891 218.618L117.527 216.868L117.011 215.118L116.314 213.428L115.464 211.798L114.463 210.259C114.463 210.259 113.766 209.444 112.492 207.995Z" fill="#F93549"/>
<path d="M232.027 165.985L385.858 125.123L402.387 186.688L302.027 213.397L299.601 213.91L297.144 214.212H294.687L292.231 214.03L289.835 213.638L287.439 213.035L285.134 212.19L283.617 211.495L282.161 210.711L144.799 131.883L142.706 130.525L140.735 129.016L138.945 127.326L137.338 125.485L135.913 123.493L134.669 121.381L133.607 119.147L133.031 117.578L132.546 116.009L105.492 16.4175L166.909 0L208.006 152.193L208.582 154.034L209.34 155.755L210.25 157.384L211.281 158.893L212.434 160.281L213.738 161.579L215.133 162.726L216.619 163.752L218.196 164.627L219.834 165.352L221.533 165.925L223.322 166.347L225.142 166.589H226.992H228.842C228.842 166.589 230.116 166.408 232.027 165.985Z" fill="#F93549"/>
</svg>
