<svg width="1894" height="444" viewBox="0 0 1894 444" fill="none" xmlns="http://www.w3.org/2000/svg">
<path d="M614.288 146.485L614.258 108.827L501.25 108.888L454.998 108.918L455.15 336.287L501.372 336.256L501.341 248.539L599.033 248.479V210.821L501.311 210.881L501.281 146.545L614.288 146.485Z" fill="#111111"/>
<path d="M677.199 158.496H633.889V336.169H677.199V158.496Z" fill="#111111"/>
<path d="M677.772 94.4912H633.157V135.416H677.772V94.4912Z" fill="#111111"/>
<path d="M869.003 185.509C864.279 176.126 856.897 168.333 847.772 163.096C837.554 157.548 826.039 154.813 814.41 155.171C805.914 155.104 797.474 156.537 789.479 159.405C781.854 162.143 774.794 166.243 768.643 171.504C762.304 176.988 756.968 183.528 752.871 190.832L749.596 158.347H711.472V336.019H754.782V240.861C754.693 234.06 755.791 227.294 758.027 220.868C759.979 215.254 763.078 210.104 767.126 205.744C771.032 201.627 775.751 198.362 780.987 196.156C786.49 193.827 792.418 192.663 798.396 192.738C805.041 192.486 811.629 194.056 817.443 197.275C822.548 200.276 826.636 204.732 829.18 210.07C832.021 216.111 833.422 222.726 833.275 229.398V335.959H876.585V219.658C876.85 207.832 874.249 196.118 869.003 185.509Z" fill="#111111"/>
<path d="M1061.81 190.557C1056.89 183.072 1050.65 176.534 1043.4 171.259C1035.82 165.773 1027.33 161.677 1018.32 159.16C1008.19 156.372 997.73 155.008 987.229 155.107C976.775 155.007 966.36 156.381 956.293 159.191C947.335 161.734 938.896 165.829 931.362 171.289C924.118 176.576 917.892 183.123 912.982 190.617C907.831 198.535 903.934 207.196 901.427 216.297C898.648 226.344 897.291 236.728 897.393 247.15C897.328 257.66 898.695 268.131 901.457 278.274C903.94 287.379 907.85 296.036 913.043 303.924C918.001 311.346 924.233 317.838 931.453 323.1C938.986 328.563 947.425 332.659 956.384 335.199C966.451 338.009 976.867 339.373 987.32 339.253C997.834 339.355 1008.31 337.98 1018.44 335.169C1027.45 332.658 1035.93 328.561 1043.49 323.07C1050.72 317.824 1056.96 311.329 1061.9 303.893C1067.06 296.015 1070.9 287.352 1073.27 278.244C1075.95 268.014 1077.25 257.478 1077.16 246.908C1077.24 236.495 1075.92 226.119 1073.24 216.055C1070.8 207.009 1066.94 198.404 1061.81 190.557ZM1030.93 267.083C1029.98 272.631 1028.17 277.998 1025.57 282.993C1023.25 287.403 1020.17 291.367 1016.47 294.698C1012.77 297.916 1008.46 300.345 1003.79 301.837C998.469 303.538 992.907 304.365 987.32 304.287C981.804 304.381 976.311 303.564 971.063 301.867C966.444 300.343 962.176 297.916 958.507 294.729C954.792 291.416 951.71 287.461 949.408 283.053C946.796 278.045 944.927 272.686 943.858 267.143C942.611 260.552 942.012 253.856 942.069 247.15C942.015 240.555 942.604 233.97 943.827 227.489C944.887 221.943 946.757 216.583 949.378 211.579C951.698 207.174 954.778 203.212 958.477 199.873C962.111 196.654 966.377 194.223 971.003 192.735C976.313 191.037 981.865 190.209 987.441 190.285C993.025 190.213 998.585 191.03 1003.91 192.705C1008.58 194.226 1012.89 196.652 1016.62 199.843C1020.32 203.174 1023.41 207.138 1025.72 211.549C1028.32 216.543 1030.13 221.91 1031.09 227.459C1032.22 233.94 1032.77 240.51 1032.72 247.089C1032.71 253.742 1032.11 260.382 1030.93 266.931V267.083Z" fill="#111111"/>
<path d="M1205.42 158.163L1161.89 278.184L1118.46 158.223L1072.54 158.253L1143.64 335.865H1177.51L1247.42 158.163H1205.42Z" fill="#111111"/>
<path d="M1396.46 178.217C1388.61 170.546 1379.23 164.628 1368.92 160.855C1357.55 156.685 1345.51 154.635 1333.4 154.805C1322.83 154.7 1312.3 156.178 1302.16 159.191C1293.04 161.912 1284.45 166.145 1276.74 171.713C1269.44 177.052 1263.16 183.661 1258.21 191.223C1253.1 199.043 1249.21 207.588 1246.66 216.57C1243.88 226.411 1242.51 236.594 1242.59 246.817C1242.51 257.242 1243.88 267.627 1246.69 277.67C1249.23 286.819 1253.26 295.493 1258.61 303.35C1263.72 310.838 1270.12 317.37 1277.5 322.647C1285.21 328.114 1293.81 332.207 1302.92 334.746C1313.08 337.654 1323.62 339.071 1334.19 338.951C1348.37 339.293 1362.5 337.027 1375.86 332.266C1386.63 328.344 1396.21 321.743 1403.7 313.089C1410.98 304.314 1416.24 294.064 1419.14 283.054L1379.08 275.915C1377.55 281.818 1374.65 287.279 1370.61 291.856C1366.51 296.32 1361.38 299.716 1355.66 301.746C1348.85 304.169 1341.66 305.337 1334.43 305.195C1328.4 305.26 1322.39 304.33 1316.66 302.442C1311.58 300.724 1306.84 298.145 1302.65 294.82C1298.58 291.474 1295.21 287.363 1292.73 282.721C1289.99 277.629 1288.01 272.168 1286.84 266.508C1286.23 263.612 1285.77 260.684 1285.48 257.737H1418.75C1419.41 255.015 1419.85 252.243 1420.05 249.449C1420.26 246.424 1420.35 243.551 1420.35 240.526C1420.57 228.504 1418.51 216.55 1414.29 205.288C1410.33 195.11 1404.25 185.884 1396.46 178.217ZM1292.91 210.914C1295.5 206.349 1298.86 202.258 1302.83 198.815C1306.84 195.4 1311.49 192.809 1316.51 191.193C1322.19 189.381 1328.13 188.493 1334.1 188.561C1340.56 188.479 1346.97 189.639 1352.99 191.979C1358.43 194.134 1363.37 197.388 1367.49 201.537C1371.63 205.863 1374.79 211.019 1376.77 216.661C1378.2 220.761 1379.14 225.015 1379.56 229.335H1286.42C1286.57 228.488 1286.69 227.61 1286.87 226.733C1288.04 221.177 1290.08 215.839 1292.91 210.914Z" fill="#111111"/>
<path d="M1549.34 155.049C1548.67 154.803 1547.94 154.7 1547.22 154.747H1544.46C1535.25 154.762 1526.19 157.048 1518.08 161.401C1509.3 166.104 1501.51 172.45 1495.15 180.094C1490.82 185.177 1487.07 190.715 1483.95 196.609L1479.98 157.923H1441.86V335.595H1485.17V257.739C1485.06 251.066 1485.82 244.408 1487.41 237.927C1488.8 232.427 1491.01 227.166 1493.96 222.319C1496.69 217.875 1500.22 213.969 1504.37 210.795C1508.56 207.615 1513.31 205.245 1518.38 203.808C1523.99 202.23 1529.8 201.456 1535.64 201.509C1538.03 201.509 1540.31 201.509 1542.46 201.842C1544.33 202.004 1546.19 202.327 1548.01 202.81L1549.34 155.049Z" fill="#111111"/>
<path d="M1678.52 237.803C1666.85 233.17 1654.61 230.118 1642.13 228.728L1621.6 226.157C1615.72 225.565 1609.93 224.318 1604.34 222.437C1600.65 221.257 1597.38 219.054 1594.91 216.085C1592.8 213.158 1591.73 209.613 1591.87 206.013C1591.81 202.102 1593.26 198.319 1595.94 195.456C1599.13 192.253 1603.12 189.956 1607.49 188.802C1613.31 187.178 1619.34 186.414 1625.39 186.534C1631.99 186.334 1638.57 187.36 1644.8 189.558C1649.81 191.394 1654.17 194.666 1657.32 198.965C1660.54 203.665 1662.56 209.073 1663.21 214.724L1702.64 209.824C1701.38 198.656 1697.19 188.016 1690.5 178.972C1683.79 170.534 1674.81 164.176 1664.6 160.642C1651.92 156.342 1638.57 154.294 1625.17 154.592C1611.7 154.318 1598.3 156.703 1585.75 161.61C1575.5 165.555 1566.59 172.321 1560.06 181.119C1554.04 189.606 1550.9 199.793 1551.11 210.187C1550.84 219.173 1553.22 228.04 1557.96 235.685C1563.03 243.139 1570.08 249.036 1578.32 252.715C1589 257.502 1600.39 260.565 1612.04 261.789L1633.55 264.39C1639.75 264.941 1645.86 266.241 1651.74 268.262C1655.65 269.523 1659.1 271.887 1661.69 275.067C1663.87 278.325 1664.93 282.197 1664.72 286.107C1664.79 289.137 1664 292.123 1662.45 294.728C1660.76 297.385 1658.48 299.611 1655.78 301.231C1652.31 303.271 1648.51 304.704 1644.55 305.466C1639.19 306.507 1633.73 306.993 1628.27 306.918C1618.22 307.407 1608.27 304.81 1599.76 299.477C1592.48 294.516 1587.97 286.45 1586.23 275.279L1546.5 280.814C1548.31 292.586 1552.77 303.796 1559.54 313.602C1566.26 322.584 1575.59 329.281 1586.26 332.779C1600.25 337.212 1614.9 339.258 1629.57 338.829C1643.91 339.183 1658.18 336.748 1671.58 331.66C1682.11 327.648 1691.27 320.71 1697.96 311.666C1704.1 302.785 1707.29 292.204 1707.06 281.419C1707.45 272.03 1705.07 262.734 1700.21 254.681C1694.84 247.011 1687.29 241.13 1678.52 237.803Z" fill="#111111"/>
<path d="M1893.65 249.207C1893.86 246.182 1893.98 243.309 1893.98 240.284C1894.2 228.262 1892.14 216.308 1887.92 205.046C1884 194.814 1877.94 185.533 1870.14 177.823C1862.31 170.159 1852.93 164.242 1842.64 160.461C1831.27 156.295 1819.23 154.244 1807.12 154.412C1796.54 154.307 1786 155.785 1775.85 158.798C1766.74 161.512 1758.16 165.746 1750.46 171.32C1743.15 176.658 1736.86 183.267 1731.9 190.83C1726.8 198.653 1722.9 207.198 1720.35 216.177C1717.58 226.019 1716.22 236.202 1716.31 246.424C1716.23 256.846 1717.6 267.229 1720.38 277.276C1722.92 286.426 1726.95 295.1 1732.3 302.956C1737.43 310.431 1743.82 316.96 1751.19 322.254C1758.91 327.696 1767.51 331.787 1776.61 334.353C1786.71 337.314 1797.19 338.801 1807.73 338.769C1821.91 339.115 1836.04 336.848 1849.4 332.084C1860.18 328.178 1869.76 321.574 1877.24 312.908C1884.53 304.141 1889.81 293.89 1892.71 282.872L1852.64 275.734C1851.1 281.629 1848.2 287.086 1844.18 291.674C1840.07 296.132 1834.92 299.527 1829.2 301.565C1822.39 303.977 1815.2 305.145 1807.97 305.013C1801.94 305.078 1795.95 304.148 1790.23 302.26C1785.15 300.556 1780.4 297.976 1776.21 294.638C1772.13 291.302 1768.75 287.189 1766.27 282.539C1763.54 277.441 1761.56 271.982 1760.38 266.327C1759.81 263.514 1759.35 260.58 1759.02 257.555H1892.29C1892.99 254.819 1893.45 252.025 1893.65 249.207ZM1766.45 210.642C1769.05 206.084 1772.41 201.994 1776.37 198.543C1780.38 195.127 1785.03 192.537 1790.04 190.92C1795.73 189.094 1801.67 188.205 1807.64 188.289C1814.1 188.204 1820.51 189.365 1826.53 191.707C1831.98 193.847 1836.92 197.103 1841.03 201.265C1845.2 205.619 1848.37 210.833 1850.31 216.54C1851.73 220.643 1852.68 224.895 1853.13 229.213H1759.96C1760.11 228.366 1760.26 227.459 1760.44 226.612C1761.6 221.009 1763.63 215.621 1766.45 210.642Z" fill="#111111"/>
<path d="M208.789 290.645L167.42 443.998L105.578 427.423L132.602 327.304L133.36 324.945L134.331 322.677L135.513 320.529L136.878 318.502L138.425 316.597L140.154 314.873L142.065 313.27L143.399 312.332L144.824 311.455L282.126 232.328L284.34 231.179L286.645 230.271L289.011 229.576L291.407 229.092L293.864 228.85H296.32L298.777 229.092L300.415 229.364L302.053 229.727L402.382 256.344L385.853 317.595L232.81 276.852L230.93 276.459L229.049 276.247H227.169L225.349 276.398L223.56 276.701L221.801 277.185L220.102 277.79L218.465 278.576L216.918 279.483L215.462 280.542L214.097 281.752L212.853 283.053L211.731 284.505L210.731 286.047L209.881 287.711C209.881 287.711 209.396 288.83 208.789 290.645Z" fill="#F93549"/>
<path d="M112.492 208.463L0 96.064L45.4942 50.9653L118.922 124.345L120.59 126.19L122.076 128.156L123.35 130.243L124.412 132.451L125.291 134.72L125.928 137.079L126.353 139.499L126.535 141.163V142.796V300.959V303.439L126.171 305.889L125.594 308.279L124.806 310.608L123.775 312.846L122.562 314.963L121.136 316.99L120.074 318.26L118.952 319.47L45.6762 392.85L0.576267 347.842L112.462 235.927L113.766 234.506L114.888 232.993L115.859 231.39L116.647 229.757L117.284 228.033L117.769 226.278L118.073 224.494V222.709V220.925L117.891 219.11L117.527 217.356L117.011 215.601L116.314 213.907L115.464 212.274L114.463 210.731C114.463 210.731 113.766 209.915 112.492 208.463Z" fill="#F93549"/>
<path d="M232.027 166.36L385.858 125.405L402.387 187.11L302.027 213.878L299.601 214.393L297.144 214.695H294.687L292.231 214.514L289.835 214.12L287.439 213.515L285.134 212.669L283.617 211.973L282.161 211.186L144.799 132.181L142.706 130.819L140.735 129.307L138.945 127.613L137.338 125.768L135.913 123.772L134.669 121.655L133.607 119.416L133.031 117.843L132.546 116.27L105.492 16.4545L166.909 0L208.006 152.537L208.582 154.382L209.34 156.106L210.25 157.739L211.281 159.252L212.434 160.643L213.738 161.944L215.133 163.093L216.619 164.122L218.196 164.999L219.834 165.725L221.533 166.299L223.322 166.723L225.142 166.965H226.992H228.842C228.842 166.965 230.116 166.783 232.027 166.36Z" fill="#F93549"/>
</svg>
