<svg width="1894" height="444" viewBox="0 0 1894 444" fill="none" xmlns="http://www.w3.org/2000/svg">
<path d="M614.288 146.487L614.258 108.829L501.25 108.89L454.998 108.92L455.15 336.289L501.372 336.259L501.341 248.541L599.033 248.481V210.823L501.311 210.884L501.281 146.548L614.288 146.487Z" fill="white"/>
<path d="M677.199 158.496H633.889V336.168H677.199V158.496Z" fill="white"/>
<path d="M677.772 94.4917H633.157V135.416H677.772V94.4917Z" fill="white"/>
<path d="M869.003 185.506C864.279 176.123 856.897 168.33 847.772 163.093C837.554 157.545 826.039 154.81 814.41 155.168C805.914 155.101 797.474 156.535 789.479 159.403C781.854 162.14 774.794 166.24 768.643 171.502C762.304 176.986 756.968 183.525 752.871 190.83L749.596 158.344H711.472V336.016H754.782V240.859C754.693 234.057 755.791 227.291 758.027 220.865C759.979 215.251 763.078 210.101 767.126 205.741C771.032 201.624 775.751 198.359 780.987 196.153C786.49 193.824 792.418 192.661 798.396 192.735C805.041 192.484 811.629 194.053 817.443 197.272C822.548 200.273 826.636 204.729 829.18 210.067C832.021 216.109 833.422 222.723 833.275 229.395V335.956H876.585V219.655C876.85 207.829 874.249 196.115 869.003 185.506Z" fill="white"/>
<path d="M1061.81 190.558C1056.89 183.073 1050.65 176.535 1043.4 171.26C1035.82 165.775 1027.33 161.678 1018.32 159.161C1008.19 156.373 997.73 155.009 987.229 155.108C976.775 155.008 966.36 156.383 956.293 159.192C947.335 161.735 938.896 165.83 931.362 171.291C924.118 176.577 917.892 183.125 912.982 190.619C907.831 198.536 903.934 207.197 901.427 216.298C898.648 226.345 897.291 236.73 897.393 247.151C897.328 257.661 898.695 268.132 901.457 278.275C903.94 287.38 907.85 296.037 913.043 303.925C918.001 311.347 924.233 317.839 931.453 323.102C938.986 328.564 947.425 332.66 956.384 335.201C966.451 338.01 976.867 339.375 987.32 339.254C997.834 339.356 1008.31 337.982 1018.44 335.17C1027.45 332.659 1035.93 328.562 1043.49 323.071C1050.72 317.825 1056.96 311.33 1061.9 303.895C1067.06 296.016 1070.9 287.353 1073.27 278.245C1075.95 268.016 1077.25 257.479 1077.16 246.909C1077.24 236.497 1075.92 226.12 1073.24 216.056C1070.8 207.011 1066.94 198.405 1061.81 190.558ZM1030.93 267.084C1029.98 272.632 1028.17 277.999 1025.57 282.994C1023.25 287.404 1020.17 291.368 1016.47 294.699C1012.77 297.917 1008.46 300.347 1003.79 301.838C998.469 303.539 992.907 304.366 987.32 304.288C981.804 304.383 976.311 303.565 971.063 301.868C966.444 300.344 962.176 297.917 958.507 294.73C954.792 291.417 951.71 287.462 949.408 283.054C946.796 278.047 944.927 272.687 943.858 267.144C942.611 260.554 942.012 253.857 942.069 247.151C942.015 240.556 942.604 233.971 943.827 227.49C944.887 221.944 946.757 216.584 949.378 211.58C951.698 207.175 954.778 203.213 958.477 199.874C962.111 196.655 966.377 194.224 971.003 192.736C976.313 191.038 981.865 190.211 987.441 190.286C993.025 190.214 998.585 191.031 1003.91 192.706C1008.58 194.227 1012.89 196.653 1016.62 199.844C1020.32 203.176 1023.41 207.139 1025.72 211.55C1028.32 216.544 1030.13 221.911 1031.09 227.46C1032.22 233.941 1032.77 240.511 1032.72 247.09C1032.71 253.744 1032.11 260.383 1030.93 266.932V267.084Z" fill="white"/>
<path d="M1205.42 158.163L1161.89 278.184L1118.46 158.223L1072.54 158.254L1143.64 335.866H1177.51L1247.42 158.163H1205.42Z" fill="white"/>
<path d="M1396.46 178.217C1388.61 170.547 1379.23 164.628 1368.92 160.855C1357.55 156.686 1345.51 154.635 1333.4 154.806C1322.83 154.7 1312.3 156.179 1302.16 159.192C1293.04 161.912 1284.45 166.146 1276.74 171.714C1269.44 177.053 1263.16 183.662 1258.21 191.223C1253.1 199.043 1249.21 207.589 1246.66 216.571C1243.88 226.411 1242.51 236.595 1242.59 246.818C1242.51 257.242 1243.88 267.627 1246.69 277.67C1249.23 286.82 1253.26 295.494 1258.61 303.35C1263.72 310.838 1270.12 317.37 1277.5 322.648C1285.21 328.114 1293.81 332.208 1302.92 334.747C1313.08 337.655 1323.62 339.071 1334.19 338.951C1348.37 339.294 1362.5 337.028 1375.86 332.266C1386.63 328.344 1396.21 321.743 1403.7 313.09C1410.98 304.314 1416.24 294.065 1419.14 283.054L1379.08 275.916C1377.55 281.818 1374.65 287.279 1370.61 291.856C1366.51 296.321 1361.38 299.717 1355.66 301.747C1348.85 304.169 1341.66 305.337 1334.43 305.195C1328.4 305.261 1322.39 304.331 1316.66 302.443C1311.58 300.724 1306.84 298.146 1302.65 294.82C1298.58 291.474 1295.21 287.363 1292.73 282.721C1289.99 277.629 1288.01 272.168 1286.84 266.509C1286.23 263.613 1285.77 260.684 1285.48 257.737H1418.75C1419.41 255.016 1419.85 252.244 1420.05 249.449C1420.26 246.425 1420.35 243.551 1420.35 240.526C1420.57 228.505 1418.51 216.551 1414.29 205.288C1410.33 195.111 1404.25 185.885 1396.46 178.217ZM1292.91 210.914C1295.5 206.35 1298.86 202.259 1302.83 198.816C1306.84 195.4 1311.49 192.81 1316.51 191.193C1322.19 189.382 1328.13 188.493 1334.1 188.562C1340.56 188.479 1346.97 189.64 1352.99 191.98C1358.43 194.135 1363.37 197.389 1367.49 201.538C1371.63 205.864 1374.79 211.02 1376.77 216.661C1378.2 220.761 1379.14 225.016 1379.56 229.335H1286.42C1286.57 228.488 1286.69 227.611 1286.87 226.734C1288.04 221.178 1290.08 215.84 1292.91 210.914Z" fill="white"/>
<path d="M1549.34 155.047C1548.67 154.801 1547.94 154.698 1547.22 154.744H1544.46C1535.25 154.759 1526.19 157.045 1518.08 161.399C1509.3 166.101 1501.51 172.448 1495.15 180.092C1490.82 185.174 1487.07 190.712 1483.95 196.607L1479.98 157.92H1441.86V335.593H1485.17V257.736C1485.06 251.064 1485.82 244.405 1487.41 237.924C1488.8 232.424 1491.01 227.163 1493.96 222.317C1496.69 217.873 1500.22 213.967 1504.37 210.793C1508.56 207.613 1513.31 205.243 1518.38 203.805C1523.99 202.227 1529.8 201.453 1535.64 201.507C1538.03 201.507 1540.31 201.507 1542.46 201.839C1544.33 202.001 1546.19 202.325 1548.01 202.807L1549.34 155.047Z" fill="white"/>
<path d="M1678.52 237.804C1666.85 233.171 1654.61 230.119 1642.13 228.73L1621.6 226.159C1615.72 225.567 1609.93 224.319 1604.34 222.438C1600.65 221.259 1597.38 219.055 1594.91 216.086C1592.8 213.159 1591.73 209.615 1591.87 206.014C1591.81 202.104 1593.26 198.32 1595.94 195.458C1599.13 192.254 1603.12 189.957 1607.49 188.803C1613.31 187.179 1619.34 186.415 1625.39 186.535C1631.99 186.335 1638.57 187.361 1644.8 189.559C1649.81 191.395 1654.17 194.668 1657.32 198.966C1660.54 203.666 1662.56 209.074 1663.21 214.725L1702.64 209.825C1701.38 198.658 1697.19 188.017 1690.5 178.973C1683.79 170.535 1674.81 164.177 1664.6 160.643C1651.92 156.343 1638.57 154.295 1625.17 154.594C1611.7 154.319 1598.3 156.704 1585.75 161.611C1575.5 165.556 1566.59 172.322 1560.06 181.12C1554.04 189.607 1550.9 199.794 1551.11 210.188C1550.84 219.174 1553.22 228.041 1557.96 235.687C1563.03 243.14 1570.08 249.038 1578.32 252.716C1589 257.503 1600.39 260.566 1612.04 261.79L1633.55 264.391C1639.75 264.943 1645.86 266.243 1651.74 268.263C1655.65 269.524 1659.1 271.888 1661.69 275.068C1663.87 278.326 1664.93 282.199 1664.72 286.109C1664.79 289.138 1664 292.124 1662.45 294.729C1660.76 297.386 1658.48 299.613 1655.78 301.232C1652.31 303.273 1648.51 304.705 1644.55 305.467C1639.19 306.508 1633.73 306.995 1628.27 306.919C1618.22 307.408 1608.27 304.811 1599.76 299.478C1592.48 294.517 1587.97 286.452 1586.23 275.28L1546.5 280.815C1548.31 292.587 1552.77 303.797 1559.54 313.603C1566.26 322.585 1575.59 329.282 1586.26 332.78C1600.25 337.214 1614.9 339.259 1629.57 338.83C1643.91 339.184 1658.18 336.75 1671.58 331.661C1682.11 327.649 1691.27 320.711 1697.96 311.668C1704.1 302.787 1707.29 292.205 1707.06 281.42C1707.45 272.031 1705.07 262.735 1700.21 254.682C1694.84 247.012 1687.29 241.131 1678.52 237.804Z" fill="white"/>
<path d="M1893.65 249.207C1893.86 246.182 1893.98 243.309 1893.98 240.284C1894.2 228.262 1892.14 216.308 1887.92 205.046C1884 194.814 1877.94 185.533 1870.14 177.823C1862.31 170.16 1852.93 164.242 1842.64 160.461C1831.27 156.295 1819.23 154.244 1807.12 154.412C1796.54 154.307 1786 155.785 1775.85 158.798C1766.74 161.512 1758.16 165.746 1750.46 171.32C1743.15 176.658 1736.86 183.267 1731.9 190.83C1726.8 198.653 1722.9 207.198 1720.35 216.177C1717.58 226.019 1716.22 236.202 1716.31 246.424C1716.23 256.846 1717.6 267.229 1720.38 277.276C1722.92 286.426 1726.95 295.1 1732.3 302.956C1737.43 310.431 1743.82 316.96 1751.19 322.254C1758.91 327.696 1767.51 331.788 1776.61 334.353C1786.71 337.314 1797.19 338.801 1807.73 338.769C1821.91 339.115 1836.04 336.849 1849.4 332.084C1860.18 328.178 1869.76 321.574 1877.24 312.908C1884.53 304.142 1889.81 293.89 1892.71 282.872L1852.64 275.734C1851.1 281.629 1848.2 287.086 1844.18 291.674C1840.07 296.133 1834.92 299.527 1829.2 301.565C1822.39 303.977 1815.2 305.145 1807.97 305.013C1801.94 305.079 1795.95 304.148 1790.23 302.261C1785.15 300.556 1780.4 297.976 1776.21 294.638C1772.13 291.302 1768.75 287.189 1766.27 282.539C1763.54 277.442 1761.56 271.982 1760.38 266.327C1759.81 263.514 1759.35 260.58 1759.02 257.555H1892.29C1892.99 254.819 1893.45 252.025 1893.65 249.207ZM1766.45 210.642C1769.05 206.084 1772.41 201.994 1776.37 198.543C1780.38 195.128 1785.03 192.537 1790.04 190.92C1795.73 189.094 1801.67 188.205 1807.64 188.289C1814.1 188.204 1820.51 189.365 1826.53 191.707C1831.98 193.847 1836.92 197.103 1841.03 201.265C1845.2 205.619 1848.37 210.833 1850.31 216.54C1851.73 220.643 1852.68 224.895 1853.13 229.213H1759.96C1760.11 228.367 1760.26 227.459 1760.44 226.612C1761.6 221.01 1763.63 215.621 1766.45 210.642Z" fill="white"/>
<path d="M208.789 290.647L167.42 444.001L105.578 427.425L132.602 327.307L133.36 324.948L134.331 322.679L135.513 320.532L136.878 318.505L138.425 316.599L140.154 314.875L142.065 313.272L143.399 312.335L144.824 311.457L282.126 232.331L284.34 231.181L286.645 230.274L289.011 229.578L291.407 229.094L293.864 228.852H296.32L298.777 229.094L300.415 229.366L302.053 229.729L402.382 256.347L385.853 317.598L232.81 276.855L230.93 276.461L229.049 276.25H227.169L225.349 276.401L223.56 276.703L221.801 277.187L220.102 277.792L218.465 278.579L216.918 279.486L215.462 280.545L214.097 281.755L212.853 283.055L211.731 284.507L210.731 286.05L209.881 287.713C209.881 287.713 209.396 288.832 208.789 290.647Z" fill="white"/>
<path d="M112.492 208.464L0 96.0655L45.4942 50.9668L118.922 124.347L120.59 126.192L122.076 128.158L123.35 130.245L124.412 132.453L125.291 134.721L125.928 137.081L126.353 139.501L126.535 141.164V142.797V300.96V303.441L126.171 305.891L125.594 308.28L124.806 310.609L123.775 312.848L122.562 314.965L121.136 316.991L120.074 318.262L118.952 319.472L45.6762 392.852L0.576267 347.844L112.462 235.929L113.766 234.507L114.888 232.995L115.859 231.392L116.647 229.758L117.284 228.034L117.769 226.28L118.073 224.495V222.711V220.926L117.891 219.111L117.527 217.357L117.011 215.603L116.314 213.909L115.464 212.275L114.463 210.733C114.463 210.733 113.766 209.916 112.492 208.464Z" fill="white"/>
<path d="M232.027 166.36L385.858 125.405L402.387 187.11L302.027 213.878L299.601 214.393L297.144 214.695H294.687L292.231 214.514L289.835 214.12L287.439 213.515L285.134 212.669L283.617 211.973L282.161 211.186L144.799 132.181L142.706 130.819L140.735 129.307L138.945 127.613L137.338 125.768L135.913 123.772L134.669 121.655L133.607 119.416L133.031 117.843L132.546 116.27L105.492 16.4545L166.909 0L208.006 152.537L208.582 154.382L209.34 156.106L210.25 157.739L211.281 159.252L212.434 160.643L213.738 161.944L215.133 163.093L216.619 164.122L218.196 164.999L219.834 165.725L221.533 166.299L223.322 166.723L225.142 166.965H226.992H228.842C228.842 166.965 230.116 166.783 232.027 166.36Z" fill="white"/>
</svg>
