<svg width="675" height="740" viewBox="0 0 675 740" fill="none" xmlns="http://www.w3.org/2000/svg">
<path d="M350.24 484.412L280.842 740L177.101 712.374L222.434 545.511L223.706 541.579L225.334 537.798L227.318 534.219L229.608 530.841L232.202 527.665L235.102 524.792L238.308 522.12L240.546 520.557L242.938 519.095L473.263 387.218L476.977 385.302L480.844 383.79L484.812 382.63L488.831 381.824L492.953 381.42H497.074L501.195 381.824L503.942 382.277L506.69 382.882L674.995 427.245L647.266 529.329L390.535 461.424L387.381 460.768L384.226 460.416H381.072L378.019 460.668L375.017 461.172L372.066 461.978L369.217 462.987L366.47 464.297L363.875 465.81L361.433 467.574L359.143 469.591L357.057 471.758L355.175 474.178L353.496 476.749L352.071 479.522C352.071 479.522 351.257 481.387 350.24 484.412Z" fill="#F93549"/>
<path d="M188.707 347.444L0 160.114L76.3171 84.9493L199.493 207.249L202.291 210.324L204.784 213.601L206.921 217.079L208.702 220.759L210.177 224.54L211.246 228.472L211.958 232.505L212.264 235.278V505.738L211.653 509.821L210.686 513.803L209.363 517.685L207.633 521.416L205.599 524.945L203.207 528.322L201.426 530.439L199.544 532.456L76.6224 654.755L0.966696 579.742L188.656 393.218L190.844 390.849L192.726 388.328L194.354 385.656L195.677 382.934L196.746 380.061L197.56 377.137L198.068 374.163V368.214L197.763 365.189L197.153 362.265L196.288 359.341L195.118 356.518L193.693 353.796L192.014 351.225C192.014 351.225 190.844 349.864 188.707 347.444Z" fill="#F93549"/>
<path d="M389.218 277.266L647.271 209.008L675 311.848L506.644 356.463L502.574 357.32L498.453 357.824H494.332L490.211 357.521L486.191 356.866L482.172 355.858L478.305 354.446L475.761 353.287L473.319 351.976L242.892 220.3L239.382 218.032L236.075 215.511L233.073 212.688L230.376 209.613L227.985 206.286L225.899 202.757L224.118 199.026L223.152 196.405L222.338 193.783L176.954 27.4241L279.983 0L348.922 254.227L349.889 257.302L351.161 260.176L352.687 262.898L354.417 265.419L356.351 267.738L358.538 269.905L360.879 271.821L363.372 273.535L366.017 274.997L368.765 276.207L371.614 277.165L374.616 277.87L377.669 278.274H383.875C383.875 278.274 386.012 277.971 389.218 277.266Z" fill="#F93549"/>
</svg>
